<?xml version="1.0" encoding="UTF-8"?>
<!DOCTYPE svg PUBLIC "-//W3C//DTD SVG 1.1//EN" "http://www.w3.org/Graphics/SVG/1.1/DTD/svg11.dtd">
<svg version="1.2" xmlns="http://www.w3.org/2000/svg" xmlns:xlink="http://www.w3.org/1999/xlink" x="0" y="0" width="747" height="295" viewBox="0 0 747 295">
<style type="text/css"><![CDATA[
text { font:12px Dialog; }
]]></style>
<rect x="-1051" y="-1120" width="3434" height="2434" style="fill:rgb(255,255,255);stroke:none" />
<clipPath id="clip1"><path d="M14,212 L148,212 L148,281 L14,281 L14,212 Z" /></clipPath>
<path d="M26,216 C21.5817184,216 18,219.5817261 18,224 L18,268 C18,272.4182739 21.5817184,276 26,276 L135,276 C139.4182739,276 143,272.4182739 143,268 L143,224 C143,219.5817261 139.4182739,216 135,216 Z M26,216" style="fill:rgb(220,230,242);stroke:none" clip-path="url(#clip1)" />
<clipPath id="clip2"><path d="M14,212 L148,212 L148,281 L14,281 L14,212 Z" /></clipPath>
<path d="M26,216 C21.5817184,216 18,219.5817261 18,224 L18,268 C18,272.4182739 21.5817184,276 26,276 L135,276 C139.4182739,276 143,272.4182739 143,268 L143,224 C143,219.5817261 139.4182739,216 135,216 Z M26,216" style="fill:none;stroke:rgb(85,142,213);stroke-width:5" clip-path="url(#clip2)" />
<clipPath id="clip3"><path d="M50,232 L112,232 L112,261 L50,261 L50,232 Z" /></clipPath>
<path d="M54.8261719,244.4125977 C55.265625,244.1665039 55.8530235,243.9672852 56.5883789,243.8149414 C57.3237343,243.6625977 57.9521484,243.5864258 58.4736328,243.5864258 C61.1923981,243.5864258 62.5517578,244.9487152 62.5517578,247.6733398 L62.5517578,253.5444336 L59.8535156,253.5444336 L59.8535156,252.1293945 L59.8183594,252.1293945 C59.1562462,253.230957 58.1865311,253.7817383 56.9091797,253.7817383 C55.989254,253.7817383 55.2524414,253.5195313 54.6987305,252.9951172 C54.1450195,252.4707031 53.8681641,251.7573242 53.8681641,250.8549805 C53.8681641,248.991684 54.9785042,247.9077148 57.1992188,247.6030273 L59.8710938,247.2426758 C59.8710938,246.1118164 59.2822342,245.5463867 58.1044922,245.5463867 C56.9443283,245.5463867 55.8515701,245.8979492 54.8261719,246.6010742 Z M58.0341797,249.1411133 C57.0087814,249.2758789 56.4960938,249.7387695 56.4960938,250.5297852 C56.4960938,250.8930664 56.6206055,251.1860352 56.8696289,251.4086914 C57.1186523,251.6313477 57.4541016,251.7426758 57.8759766,251.7426758 C58.4560585,251.7426758 58.9335938,251.5375977 59.3085938,251.1274414 C59.6835938,250.7172852 59.8710938,250.2075195 59.8710938,249.5981445 L59.8710938,248.9038086 Z M72.2724609,253.184082 C71.5927734,253.5825195 70.6259842,253.7817383 69.3720703,253.7817383 C67.8896408,253.7817383 66.6914139,253.3305664 65.7773438,252.4282227 C64.8632813,251.5258789 64.40625,250.3569336 64.40625,248.9213867 C64.40625,247.2690277 64.8984299,245.9667969 65.8828125,245.0146484 C66.8671951,244.0625 68.1796799,243.5864258 69.8203125,243.5864258 C70.927742,243.5864258 71.7480469,243.7387695 72.28125,244.043457 L72.28125,246.4780273 C71.6308594,246.003418 70.921875,245.7661133 70.1542969,245.7661133 C69.2871017,245.7661133 68.5913086,246.0297852 68.0668945,246.5571289 C67.5424805,247.0844727 67.2802734,247.8081055 67.2802734,248.7280273 C67.2802734,249.6186523 67.5292969,250.3203125 68.0273438,250.8330078 C68.5253906,251.3457031 69.2021484,251.6020508 70.0576172,251.6020508 C70.8134766,251.6020508 71.5517578,251.3618164 72.2724609,250.8813477 Z M80.0068359,253.4301758 C79.5791016,253.6645508 78.9316483,253.7817383 78.0644531,253.7817383 C76.0019455,253.7817383 74.9707031,252.6977692 74.9707031,250.5297852 L74.9707031,245.9418945 L73.3710938,245.9418945 L73.3710938,243.8237305 L74.9707031,243.8237305 L74.9707031,241.6879883 L77.7919922,240.8793945 L77.7919922,243.8237305 L80.0068359,243.8237305 L80.0068359,245.9418945 L77.7919922,245.9418945 L77.7919922,250.0375977 C77.7919922,251.074707 78.2021408,251.5932617 79.0224609,251.5932617 C79.3388672,251.5932617 79.6669922,251.4995117 80.0068359,251.3120117 Z M81.4833984,240.6860352 C81.4833984,240.2524414 81.637207,239.8994141 81.9448242,239.6269531 C82.2524414,239.3544922 82.6464844,239.2182617 83.1269531,239.2182617 C83.6191406,239.2182617 84.0175781,239.3574219 84.3222656,239.6357422 C84.6269531,239.9140625 84.7792969,240.2641602 84.7792969,240.6860352 C84.7792969,241.1137695 84.6240234,241.4697266 84.3134766,241.7539063 C84.0029297,242.0380859 83.6074219,242.1801758 83.1269531,242.1801758 C82.6523438,242.1801758 82.2597656,242.0366211 81.9492188,241.7495117 C81.6386719,241.4624023 81.4833984,241.1079102 81.4833984,240.6860352 Z M81.6943359,253.5444336 L81.6943359,243.8237305 L84.5244141,243.8237305 L84.5244141,253.5444336 Z M86.484375,248.7280273 C86.484375,247.1284027 86.9633713,245.871582 87.9213867,244.9575195 C88.8794022,244.043457 90.1669846,243.5864258 91.7841797,243.5864258 C93.3486404,243.5864258 94.5908127,244.0361328 95.5107422,244.9355469 C96.4306717,245.8349609 96.890625,247.043457 96.890625,248.5610352 C96.890625,250.1548004 96.4189529,251.4233398 95.4755859,252.3666992 C94.5322189,253.3100586 93.2548904,253.7817383 91.6435547,253.7817383 C90.0615158,253.7817383 88.80616,253.3291016 87.8774414,252.4238281 C86.9487228,251.5185547 86.484375,250.2866211 86.484375,248.7280273 Z M89.3583984,248.6928711 C89.3583984,250.6323395 90.1494064,251.6020508 91.7314453,251.6020508 C93.2490311,251.6020508 94.0078125,250.6059723 94.0078125,248.6137695 C94.0078125,246.7153168 93.2431717,245.7661133 91.7138672,245.7661133 C90.9697266,245.7661133 90.3911133,246.0209961 89.9780273,246.5307617 C89.5649414,247.0405273 89.3583984,247.7612305 89.3583984,248.6928711 Z M108.1318359,253.5444336 L105.3105469,253.5444336 L105.3105469,248.121582 C105.3105469,246.5512543 104.7451248,245.7661133 103.6142578,245.7661133 C103.0751953,245.7661133 102.6269531,245.9755859 102.2695313,246.3945313 C101.9121094,246.8134766 101.7333984,247.3481445 101.7333984,247.9985352 L101.7333984,253.5444336 L98.8945313,253.5444336 L98.8945313,243.8237305 L101.7333984,243.8237305 L101.7333984,245.3706055 L101.7685547,245.3706055 C102.4775391,244.1811523 103.5205002,243.5864258 104.8974609,243.5864258 C107.0537262,243.5864258 108.1318359,244.922348 108.1318359,247.5942383 Z M109.265625,253.5444336" style="fill:rgb(55,96,146);stroke:none" clip-path="url(#clip3)" />
<clipPath id="clip4"><path d="M278,236 L371,236 L371,272 L278,272 L278,236 Z" /></clipPath>
<path d="M287,237 C282.5817261,237 279,240.5817261 279,245 L279,262 C279,266.4182739 282.5817261,270 287,270 L361,270 C365.4182739,270 369,266.4182739 369,262 L369,245 C369,240.5817261 365.4182739,237 361,237 Z M287,237" style="fill:rgb(85,142,213);stroke:none" clip-path="url(#clip4)" />
<clipPath id="clip5"><path d="M290,243 L359,243 L359,265 L290,265 L290,243 Z" /></clipPath>
<path d="M300.244873,257.5800781 L298.2009277,257.5800781 L298.2009277,256.5898438 L298.1691895,256.5898438 C297.6740723,257.3642578 296.9419861,257.7514648 295.9729004,257.7514648 C295.0799866,257.7514648 294.3701172,257.4361877 293.8432617,256.8056641 C293.3164063,256.1751404 293.0529785,255.3160858 293.0529785,254.2285156 C293.0529785,253.0774689 293.3481445,252.1496582 293.9384766,251.4450684 C294.5288086,250.7404785 295.3000488,250.3881836 296.2521973,250.3881836 C297.1662598,250.3881836 297.8052368,250.7182617 298.1691895,251.378418 L298.2009277,251.378418 L298.2009277,247.1889648 L300.244873,247.1889648 Z M298.232666,253.6064453 C298.232666,253.1324768 298.0898438,252.7399902 297.8041992,252.4289551 C297.5185547,252.1179199 297.1620483,251.9624023 296.7346191,251.9624023 C296.2352905,251.9624023 295.8427734,252.1602325 295.5571289,252.5559082 C295.2714844,252.9515839 295.1286621,253.4879456 295.1286621,254.1650391 C295.1286621,254.8082733 295.2661743,255.3044434 295.5412598,255.6535645 C295.8163452,256.0026855 296.1950684,256.1772461 296.6774902,256.1772461 C297.1303101,256.1772461 297.5026855,255.9931641 297.7946777,255.625 C298.0866699,255.2568359 298.232666,254.778656 298.232666,254.1904297 Z M302.2878418,248.293457 C302.2878418,247.9803009 302.3989258,247.7253418 302.6210938,247.5285645 C302.8432617,247.3317871 303.1278687,247.2333984 303.4748535,247.2333984 C303.8303223,247.2333984 304.118103,247.3339081 304.3381348,247.5349121 C304.5581665,247.7359161 304.6682129,247.9887695 304.6682129,248.293457 C304.6682129,248.6023712 304.5560913,248.8594513 304.3317871,249.0646973 C304.1074829,249.2699432 303.8218384,249.3725586 303.4748535,249.3725586 C303.1320801,249.3725586 302.8485718,249.2688751 302.6242676,249.0615234 C302.3999634,248.8541718 302.2878418,248.5981445 302.2878418,248.293457 Z M302.4401855,257.5800781 L302.4401855,250.5595703 L304.4841309,250.5595703 L304.4841309,257.5800781 Z M306.2878418,255.6948242 C306.9903259,256.1222229 307.6779785,256.3359375 308.3508301,256.3359375 C309.1972046,256.3359375 309.6203613,256.1095276 309.6203613,255.6567383 C309.6203613,255.3351288 309.2712402,255.0664063 308.572998,254.8505859 C307.7012329,254.5797577 307.102478,254.278244 306.7766113,253.9460449 C306.4507446,253.6138458 306.2878418,253.1642303 306.2878418,252.597168 C306.2878418,251.9073792 306.5671387,251.3667755 307.1257324,250.9753418 C307.6843262,250.5839081 308.4164124,250.3881836 309.3220215,250.3881836 C309.965271,250.3881836 310.5852051,250.4833984 311.1818848,250.6738281 L311.1818848,252.2861328 C310.6359863,251.9645233 310.0350952,251.8037109 309.3791504,251.8037109 C309.0532837,251.8037109 308.7909546,251.8618927 308.592041,251.9782715 C308.3931274,252.0946503 308.2937012,252.2480469 308.2937012,252.4384766 C308.2937012,252.7600861 308.5899048,253.02034 309.182373,253.2192383 C309.8171387,253.4308319 310.2942505,253.6233673 310.6137695,253.796875 C310.9332886,253.9703827 311.1765747,254.1988983 311.34375,254.4824219 C311.5109253,254.7659454 311.5944824,255.0939178 311.5944824,255.4663086 C311.5944824,256.1899414 311.3046265,256.751709 310.7248535,257.1516113 C310.1450806,257.5515137 309.370697,257.7514648 308.4016113,257.7514648 C307.6398926,257.7514648 306.9353027,257.6308594 306.2878418,257.3896484 Z M314.5222168,256.7358398 L314.5222168,260.8110352 L312.4719238,260.8110352 L312.4719238,250.5595703 L314.5222168,250.5595703 L314.5222168,251.6323242 L314.5476074,251.6323242 C315.0850525,250.802887 315.844635,250.3881836 316.826416,250.3881836 C317.7193298,250.3881836 318.4175415,250.7002716 318.9211426,251.3244629 C319.4247437,251.9486542 319.6765137,252.798172 319.6765137,253.8730469 C319.6765137,255.0452576 319.3845215,255.9846954 318.8005371,256.6914063 C318.2165527,257.3981018 317.4506226,257.7514648 316.5026855,257.7514648 C315.6436157,257.7514648 314.9919434,257.4129333 314.5476074,256.7358398 Z M314.4904785,254.4760742 C314.4904785,254.9754333 314.6259155,255.3837891 314.8967285,255.7011719 C315.1675415,256.0185547 315.5187988,256.1772461 315.9504395,256.1772461 C316.4624939,256.1772461 316.8613281,255.9783478 317.1469727,255.5805664 C317.4326172,255.182785 317.5754395,254.6199646 317.5754395,253.8920898 C317.5754395,252.6056213 317.0739746,251.9624023 316.0710449,251.9624023 C315.6055298,251.9624023 315.225769,252.1401367 314.9316406,252.4956055 C314.6375122,252.8510742 314.4904785,253.3081055 314.4904785,253.8666992 Z M321.6433105,250.9848633 C321.9606934,250.8071289 322.3849182,250.6632538 322.9160156,250.5532227 C323.447113,250.4431915 323.9009399,250.3881836 324.2775879,250.3881836 C326.2411499,250.3881836 327.2229004,251.3720551 327.2229004,253.3398438 L327.2229004,257.5800781 L325.2741699,257.5800781 L325.2741699,256.5581055 L325.2487793,256.5581055 C324.7705688,257.3536682 324.0702515,257.7514648 323.1477051,257.7514648 C322.4833069,257.7514648 321.9511719,257.5621033 321.5512695,257.1833496 C321.1513672,256.8045959 320.951416,256.2893982 320.951416,255.6376953 C320.951416,254.2919922 321.7533264,253.5091095 323.3571777,253.2890625 L325.2868652,253.0288086 C325.2868652,252.2120667 324.8615723,251.8037109 324.0109863,251.8037109 C323.1730957,251.8037109 322.3838806,252.0576172 321.6433105,252.5654297 Z M323.9602051,254.3999023 C323.219635,254.4972382 322.8493652,254.831543 322.8493652,255.402832 C322.8493652,255.6652069 322.93927,255.8767853 323.1191406,256.0375977 C323.2990112,256.1983948 323.5412598,256.2788086 323.8459473,256.2788086 C324.2648926,256.2788086 324.6098022,256.1307068 324.8806152,255.8344727 C325.1514282,255.5382538 325.2868652,255.1700897 325.2868652,254.7299805 L325.2868652,254.2285156 Z M333.604248,257.4975586 C333.2953491,257.6668396 332.8277283,257.7514648 332.201416,257.7514648 C330.7118225,257.7514648 329.967041,256.9685974 329.967041,255.402832 L329.967041,252.0893555 L328.8117676,252.0893555 L328.8117676,250.5595703 L329.967041,250.5595703 L329.967041,249.0170898 L332.0046387,248.4331055 L332.0046387,250.5595703 L333.604248,250.5595703 L333.604248,252.0893555 L332.0046387,252.0893555 L332.0046387,255.0473633 C332.0046387,255.7963867 332.3008423,256.1708984 332.8933105,256.1708984 C333.1218262,256.1708984 333.3588257,256.1031799 333.604248,255.9677734 Z M341.1052246,257.5800781 L339.0612793,257.5800781 L339.0612793,253.5810547 C339.0612793,252.5019531 338.6677246,251.9624023 337.8806152,251.9624023 C337.4870605,251.9624023 337.162262,252.1126251 336.90625,252.4130859 C336.6502075,252.7135468 336.5222168,253.1028595 336.5222168,253.5810547 L336.5222168,257.5800781 L334.4719238,257.5800781 L334.4719238,247.1889648 L336.5222168,247.1889648 L336.5222168,251.6132813 L336.5476074,251.6132813 C337.0850525,250.7965393 337.8086853,250.3881836 338.7185059,250.3881836 C340.3096619,250.3881836 341.1052246,251.3487854 341.1052246,253.2700195 Z M348.7053223,254.6474609 L344.0842285,254.6474609 C344.1561584,255.7350311 344.8120728,256.2788086 346.052002,256.2788086 C346.826416,256.2788086 347.5098572,256.0883789 348.1022949,255.7075195 L348.1022949,257.2119141 C347.4632874,257.5716248 346.6254272,257.7514648 345.588623,257.7514648 C344.4714355,257.7514648 343.6028748,257.4361877 342.9829102,256.8056641 C342.3629456,256.1751404 342.0529785,255.2970428 342.0529785,254.1713867 C342.0529785,253.0499573 342.3830566,252.1390839 343.0432129,251.4387207 C343.7033691,250.7383575 344.5328064,250.3881836 345.5314941,250.3881836 C346.5259705,250.3881836 347.3035583,250.6896973 347.8642578,251.2927246 C348.4249573,251.895752 348.7053223,252.7241211 348.7053223,253.777832 Z M346.7946777,253.3652344 C346.7946777,252.3157501 346.3693848,251.7910156 345.5187988,251.7910156 C345.167572,251.7910156 344.8565369,251.9348907 344.5856934,252.2226563 C344.3148499,252.5104218 344.1455994,252.8912659 344.0778809,253.3652344 Z M354.9470215,252.4194336 C354.6973572,252.2755585 354.3947754,252.2036133 354.0393066,252.2036133 C353.573822,252.2036133 353.2045898,252.3813477 352.9316406,252.7368164 C352.6586914,253.0922852 352.5222168,253.5810547 352.5222168,254.203125 L352.5222168,257.5800781 L350.4719238,257.5800781 L350.4719238,250.5595703 L352.5222168,250.5595703 L352.5222168,251.8798828 L352.5476074,251.8798828 C352.8861389,250.9192657 353.5018616,250.4389648 354.3947754,250.4389648 C354.6359863,250.4389648 354.8200684,250.4664764 354.9470215,250.5214844 Z M355.048584,257.5800781" style="fill:rgb(255,255,255);stroke:none" clip-path="url(#clip5)" />
<clipPath id="clip6"><path d="M503,232 L567,232 L567,268 L503,268 L503,232 Z" /></clipPath>
<path d="M512,233 C507.5817261,233 504,236.5817261 504,241 L504,258 C504,262.4182739 507.5817261,266 512,266 L557,266 C561.4182739,266 565,262.4182739 565,258 L565,241 C565,236.5817261 561.4182739,233 557,233 Z M512,233" style="fill:rgb(85,142,213);stroke:none" clip-path="url(#clip6)" />
<clipPath id="clip7"><path d="M515,239 L555,239 L555,261 L515,261 L515,239 Z" /></clipPath>
<path d="M518.2912598,252.6025391 C518.9937744,253.029953 519.6813965,253.2436523 520.354248,253.2436523 C521.2005615,253.2436523 521.6237793,253.0172577 521.6237793,252.5644531 C521.6237793,252.2428436 521.2746582,251.9741211 520.576416,251.7583008 C519.7047119,251.4874725 519.105835,251.1859589 518.7800293,250.8537598 C518.4542236,250.5215607 518.2912598,250.0719452 518.2912598,249.5048828 C518.2912598,248.815094 518.5705566,248.2744904 519.1291504,247.8830566 C519.6877441,247.4916229 520.4197998,247.2958984 521.3254395,247.2958984 C521.9686279,247.2958984 522.588623,247.3911133 523.1853027,247.581543 L523.1853027,249.1938477 C522.6394043,248.8722382 522.0384521,248.7114258 521.3825684,248.7114258 C521.0567627,248.7114258 520.7943115,248.7696075 520.595459,248.8859863 C520.3966064,249.0023651 520.2971191,249.1557617 520.2971191,249.3461914 C520.2971191,249.6678009 520.5933838,249.9280548 521.185791,250.1269531 C521.8205566,250.3385468 522.2977295,250.5310822 522.6171875,250.7045898 C522.9366455,250.8780975 523.1800537,251.1066132 523.347168,251.3901367 C523.5142822,251.6736603 523.5979004,252.0016327 523.5979004,252.3740234 C523.5979004,253.0976563 523.3079834,253.6594238 522.7282715,254.0593262 C522.1485596,254.4592285 521.3741455,254.6591797 520.4050293,254.6591797 C519.6433105,254.6591797 518.9387207,254.5385742 518.2912598,254.2973633 Z M528.607666,254.4052734 C528.2987061,254.5745392 527.8311768,254.6591797 527.204834,254.6591797 C525.71521,254.6591797 524.970459,253.8763123 524.970459,252.3105469 L524.970459,248.9970703 L523.8151855,248.9970703 L523.8151855,247.4672852 L524.970459,247.4672852 L524.970459,245.9248047 L527.0080566,245.3408203 L527.0080566,247.4672852 L528.607666,247.4672852 L528.607666,248.9970703 L527.0080566,248.9970703 L527.0080566,251.9550781 C527.0080566,252.7041016 527.3043213,253.0786133 527.8967285,253.0786133 C528.1252441,253.0786133 528.3621826,253.01091 528.607666,252.8754883 Z M529.0563965,251.0092773 C529.0563965,249.8540039 529.4023438,248.9462891 530.0942383,248.2861328 C530.7861328,247.6259766 531.7160645,247.2958984 532.8840332,247.2958984 C534.013916,247.2958984 534.9110107,247.6206818 535.5754395,248.2702637 C536.2398682,248.9198456 536.5720215,249.7926331 536.5720215,250.8886719 C536.5720215,252.0397186 536.2313232,252.9558868 535.5500488,253.637207 C534.8687744,254.3185272 533.946228,254.6591797 532.7824707,254.6591797 C531.6398926,254.6591797 530.7332764,254.3322754 530.0625,253.6784668 C529.3917236,253.0246582 529.0563965,252.1349335 529.0563965,251.0092773 Z M531.1320801,250.9838867 C531.1320801,252.384613 531.7033691,253.0849609 532.8459473,253.0849609 C533.9420166,253.0849609 534.4899902,252.3655701 534.4899902,250.9267578 C534.4899902,249.5556641 533.9377441,248.8701172 532.833252,248.8701172 C532.2957764,248.8701172 531.8779297,249.0541992 531.5795898,249.4223633 C531.28125,249.7905273 531.1320801,250.3110352 531.1320801,250.9838867 Z M542.9504395,249.3271484 C542.7008057,249.1832733 542.3981934,249.1113281 542.0427246,249.1113281 C541.5772705,249.1113281 541.2080078,249.2890625 540.9350586,249.6445313 C540.6621094,250 540.5256348,250.4887695 540.5256348,251.1108398 L540.5256348,254.487793 L538.4753418,254.487793 L538.4753418,247.4672852 L540.5256348,247.4672852 L540.5256348,248.7875977 L540.5510254,248.7875977 C540.8895264,247.8269806 541.505249,247.3466797 542.3981934,247.3466797 C542.6394043,247.3466797 542.8234863,247.3741913 542.9504395,247.4291992 Z M550.7087402,251.5551758 L546.0876465,251.5551758 C546.1595459,252.642746 546.8154907,253.1865234 548.0554199,253.1865234 C548.829834,253.1865234 549.5133057,252.9960938 550.1057129,252.6152344 L550.1057129,254.1196289 C549.4666748,254.4793243 548.6288452,254.6591797 547.592041,254.6591797 C546.4748535,254.6591797 545.6063232,254.3439178 544.9863281,253.7133789 C544.366333,253.08284 544.0563965,252.2047577 544.0563965,251.0791016 C544.0563965,249.9576721 544.3864746,249.0467987 545.0466309,248.3464355 C545.7067871,247.6460724 546.5362549,247.2958984 547.5349121,247.2958984 C548.5294189,247.2958984 549.3070068,247.5974121 549.8676758,248.2004395 C550.4283447,248.8034668 550.7087402,249.6318359 550.7087402,250.6855469 Z M548.7980957,250.2729492 C548.7980957,249.223465 548.3728027,248.6987305 547.5222168,248.6987305 C547.1710205,248.6987305 546.8599854,248.8426056 546.5891113,249.1303711 C546.3182373,249.4181366 546.1490479,249.798996 546.0812988,250.2729492 Z M551.1086426,254.487793" style="fill:rgb(255,255,255);stroke:none" clip-path="url(#clip7)" />
<clipPath id="clip8"><path d="M672,229 L733,229 L733,265 L672,265 L672,229 Z" /></clipPath>
<path d="M681,230 C676.5817261,230 673,233.5817261 673,238 L673,255 C673,259.4182739 676.5817261,263 681,263 L723,263 C727.4182739,263 731,259.4182739 731,255 L731,238 C731,233.5817261 727.4182739,230 723,230 Z M681,230" style="fill:rgb(85,142,213);stroke:none" clip-path="url(#clip8)" />
<clipPath id="clip9"><path d="M684,236 L721,236 L721,258 L684,258 L684,236 Z" /></clipPath>
<path d="M693.9995117,245.0671387 L691.3652344,252.0876465 L689.0483398,252.0876465 L686.5410156,245.0671387 L688.7373047,245.0671387 L690.0258789,249.4851074 C690.1655273,249.9675293 690.2438354,250.3716583 690.2607422,250.6975098 L690.2924805,250.6975098 C690.326355,250.363205 690.4088745,249.971756 690.5400391,249.5231934 L691.8540039,245.0671387 Z M695.2583008,242.8010254 C695.2583008,242.4878693 695.3693848,242.2329102 695.5915527,242.0361328 C695.8137207,241.8393555 696.0983276,241.7409668 696.4453125,241.7409668 C696.8007813,241.7409668 697.088562,241.8414764 697.3085938,242.0424805 C697.5286255,242.2434845 697.6386719,242.4963379 697.6386719,242.8010254 C697.6386719,243.1099396 697.5265503,243.3670197 697.3022461,243.5722656 C697.0779419,243.7775116 696.7922974,243.880127 696.4453125,243.880127 C696.1025391,243.880127 695.8190308,243.7764435 695.5947266,243.5690918 C695.3704224,243.3617401 695.2583008,243.1057129 695.2583008,242.8010254 Z M695.4106445,252.0876465 L695.4106445,245.0671387 L697.4545898,245.0671387 L697.4545898,252.0876465 Z M705.6757813,249.1550293 L701.0546875,249.1550293 C701.1266479,250.2425995 701.7825317,250.786377 703.0224609,250.786377 C703.796875,250.786377 704.4802856,250.5959473 705.0727539,250.2150879 L705.0727539,251.7194824 C704.4337769,252.0791779 703.5958862,252.2590332 702.559082,252.2590332 C701.4418945,252.2590332 700.5733032,251.9437714 699.9533691,251.3132324 C699.3334351,250.6826935 699.0234375,249.8046112 699.0234375,248.6789551 C699.0234375,247.5575256 699.3535156,246.6466522 700.0136719,245.9462891 C700.6738281,245.2459259 701.5032349,244.895752 702.5019531,244.895752 C703.4963989,244.895752 704.2739868,245.1972656 704.8347168,245.800293 C705.3954468,246.4033203 705.6757813,247.2316895 705.6757813,248.2854004 Z M703.7651367,247.8728027 C703.7651367,246.8233185 703.3398438,246.298584 702.4892578,246.298584 C702.1380005,246.298584 701.8269653,246.4424591 701.5561523,246.7302246 C701.2853394,247.0179901 701.1160278,247.3988495 701.0483398,247.8728027 Z M717.4589844,245.0671387 L715.4277344,252.0876465 L713.2758789,252.0876465 L712.1967773,247.8728027 C712.1248169,247.5892792 712.086731,247.2993927 712.0825195,247.0031738 L712.0380859,247.0031738 C712.0084839,247.3374786 711.9640503,247.6188965 711.9047852,247.8474121 L710.7431641,252.0876465 L708.6166992,252.0876465 L706.6171875,245.0671387 L708.7119141,245.0671387 L709.7338867,249.7263184 C709.7761841,249.9125214 709.8100586,250.1685333 709.8354492,250.4943848 L709.8798828,250.4943848 C709.901062,250.1812286 709.9412231,249.916748 710.0004883,249.7009277 L711.2573242,245.0671387 L713.199707,245.0671387 L714.3232422,249.732666 C714.3528442,249.8596191 714.3845825,250.1177521 714.418457,250.5070801 L714.4692383,250.5070801 C714.4819336,250.2827911 714.5178833,250.0246582 714.5771484,249.732666 L715.5546875,245.0671387 Z M717.5795898,252.0876465" style="fill:rgb(255,255,255);stroke:none" clip-path="url(#clip9)" />
<clipPath id="clip10"><path d="M470,62 L543,62 L543,98 L470,98 L470,62 Z" /></clipPath>
<path d="M479,63 C474.5817261,63 471,66.5817261 471,71 L471,88 C471,92.4182739 474.5817261,96 479,96 L533,96 C537.4182739,96 541,92.4182739 541,88 L541,71 C541,66.5817261 537.4182739,63 533,63 Z M479,63" style="fill:rgb(85,142,213);stroke:none" clip-path="url(#clip10)" />
<clipPath id="clip11"><path d="M482,69 L531,69 L531,91 L482,91 L482,69 Z" /></clipPath>
<path d="M494.3271484,85.0876465 L492.0419922,85.0876465 L491.3056641,82.8342285 L487.7319336,82.8342285 L487.0083008,85.0876465 L484.7358398,85.0876465 L488.3349609,75.255127 L490.7978516,75.255127 Z M490.8105469,81.2155762 L489.6933594,77.8068848 C489.6214294,77.5910645 489.5706482,77.3054199 489.5410156,76.9499512 L489.4838867,76.9499512 C489.4584961,77.2377167 489.4013672,77.5148926 489.3125,77.7814941 L488.1889648,81.2155762 Z M500.8549805,84.8273926 C500.3641052,85.1151581 499.665863,85.2590332 498.7602539,85.2590332 C497.6896057,85.2590332 496.8242188,84.933197 496.1640625,84.2814941 C495.5039063,83.6297913 495.1738281,82.7855682 495.1738281,81.7487793 C495.1738281,80.5554199 495.5292969,79.6149139 496.2402344,78.9272461 C496.9511719,78.2395782 497.8990784,77.895752 499.0839844,77.895752 C499.8837891,77.895752 500.4762268,78.0057831 500.8613281,78.2258301 L500.8613281,79.9841309 C500.3916016,79.6413574 499.8795471,79.4699707 499.3251953,79.4699707 C498.6988831,79.4699707 498.1963806,79.6604004 497.817627,80.0412598 C497.4388733,80.4221191 497.2495117,80.9447327 497.2495117,81.6091309 C497.2495117,82.2523651 497.4293518,82.7591095 497.7890625,83.1293945 C498.1487732,83.4996796 498.6375427,83.6848145 499.2553711,83.6848145 C499.8012695,83.6848145 500.3344727,83.5113068 500.8549805,83.1643066 Z M506.7250977,85.005127 C506.4161682,85.1743927 505.9485779,85.2590332 505.3222656,85.2590332 C503.8326721,85.2590332 503.0878906,84.4761658 503.0878906,82.9104004 L503.0878906,79.5969238 L501.9326172,79.5969238 L501.9326172,78.0671387 L503.0878906,78.0671387 L503.0878906,76.5246582 L505.1254883,75.9406738 L505.1254883,78.0671387 L506.7250977,78.0671387 L506.7250977,79.5969238 L505.1254883,79.5969238 L505.1254883,82.5549316 C505.1254883,83.3039551 505.4217224,83.6784668 506.0141602,83.6784668 C506.2426758,83.6784668 506.4796448,83.6107635 506.7250977,83.4753418 Z M507.4086914,75.8010254 C507.4086914,75.4878693 507.5197754,75.2329102 507.7419434,75.0361328 C507.9641113,74.8393555 508.2486877,74.7409668 508.5957031,74.7409668 C508.9511719,74.7409668 509.2389221,74.8414764 509.4589844,75.0424805 C509.6790466,75.2434845 509.7890625,75.4963379 509.7890625,75.8010254 C509.7890625,76.1099396 509.6769104,76.3670197 509.4526367,76.5722656 C509.228363,76.7775116 508.9427185,76.880127 508.5957031,76.880127 C508.2529297,76.880127 507.9693909,76.7764435 507.7451172,76.5690918 C507.5208435,76.3617401 507.4086914,76.1057129 507.4086914,75.8010254 Z M507.5610352,85.0876465 L507.5610352,78.0671387 L509.6049805,78.0671387 L509.6049805,85.0876465 Z M511.1738281,81.6091309 C511.1738281,80.4538574 511.5197754,79.5461426 512.2116699,78.8859863 C512.9035645,78.2258301 513.8334961,77.895752 515.0014648,77.895752 C516.1313477,77.895752 517.0284424,78.2205353 517.6928711,78.8701172 C518.3572998,79.5196991 518.6894531,80.3924866 518.6894531,81.4885254 C518.6894531,82.6395721 518.3487549,83.5557404 517.6674805,84.2370605 C516.9862061,84.9183807 516.0636597,85.2590332 514.8999023,85.2590332 C513.7573242,85.2590332 512.850708,84.9321289 512.1799316,84.2783203 C511.5091858,83.6245117 511.1738281,82.734787 511.1738281,81.6091309 Z M513.2495117,81.5837402 C513.2495117,82.9844666 513.8208008,83.6848145 514.9633789,83.6848145 C516.0594482,83.6848145 516.6074219,82.9654236 516.6074219,81.5266113 C516.6074219,80.1555176 516.0551758,79.4699707 514.9506836,79.4699707 C514.413208,79.4699707 513.9953613,79.6540527 513.6970215,80.0222168 C513.3986816,80.3903809 513.2495117,80.9108887 513.2495117,81.5837402 Z M527.2641602,85.0876465 L525.2265625,85.0876465 L525.2265625,81.1711426 C525.2265625,80.0370178 524.8182373,79.4699707 524.0014648,79.4699707 C523.6121826,79.4699707 523.2884521,79.6212616 523.0302734,79.9238281 C522.7720947,80.2263947 522.6430664,80.6125488 522.6430664,81.0822754 L522.6430664,85.0876465 L520.5927734,85.0876465 L520.5927734,78.0671387 L522.6430664,78.0671387 L522.6430664,79.1843262 L522.668457,79.1843262 C523.180542,78.3252716 523.9337158,77.895752 524.9282227,77.895752 C526.4855347,77.895752 527.2641602,78.8605804 527.2641602,80.7902832 Z M528.0830078,85.0876465" style="fill:rgb(255,255,255);stroke:none" clip-path="url(#clip11)" />
<clipPath id="clip12"><path d="M139,241 L283,241 L283,260 L139,260 L139,241 Z" /></clipPath>
<path d="M143,248.4154663 C184,250 233,249 279,251.2747192" style="fill:none;stroke:rgb(119,147,60);stroke-width:3;stroke-dasharray:18,9;stroke-dashoffset:0" clip-path="url(#clip12)" />
<clipPath id="clip13"><path d="M139,241 L283,241 L283,260 L139,260 L139,241 Z" /></clipPath>
<path d="M270.103363,255.8408966 L279,251.2747192 L270.5972595,245.8530884 Z M270.103363,255.8408966" style="fill:rgb(119,147,60);stroke:none" clip-path="url(#clip13)" />
<clipPath id="clip14"><path d="M139,241 L283,241 L283,260 L139,260 L139,241 Z" /></clipPath>
<path d="M270.103363,255.8408966 L279,251.2747192 L270.5972595,245.8530884 Z M270.103363,255.8408966" style="fill:none;stroke:rgb(119,147,60);stroke-width:3" clip-path="url(#clip14)" />
<clipPath id="clip15"><path d="M365,242 L508,242 L508,264 L365,264 L365,242 Z" /></clipPath>
<path d="M369,254.2337036 C416,255 454,254 504,251.2049713" style="fill:none;stroke:rgb(119,147,60);stroke-width:3;stroke-dasharray:18,9;stroke-dashoffset:0" clip-path="url(#clip15)" />
<clipPath id="clip16"><path d="M365,242 L508,242 L508,264 L365,264 L365,242 Z" /></clipPath>
<path d="M495.6323242,256.680542 L504,251.2049713 L495.0741882,246.6961212 Z M495.6323242,256.680542" style="fill:rgb(119,147,60);stroke:none" clip-path="url(#clip16)" />
<clipPath id="clip17"><path d="M365,242 L508,242 L508,264 L365,264 L365,242 Z" /></clipPath>
<path d="M495.6323242,256.680542 L504,251.2049713 L495.0741882,246.6961212 Z M495.6323242,256.680542" style="fill:none;stroke:rgb(119,147,60);stroke-width:3" clip-path="url(#clip17)" />
<clipPath id="clip18"><path d="M561,236 L677,236 L677,257 L561,257 L561,236 Z" /></clipPath>
<path d="M565,249.7328186 C600,250 632,244 673,245.4642792" style="fill:none;stroke:rgb(119,147,60);stroke-width:3;stroke-dasharray:18,9;stroke-dashoffset:0" clip-path="url(#clip18)" />
<clipPath id="clip19"><path d="M561,236 L677,236 L677,257 L561,257 L561,236 Z" /></clipPath>
<path d="M664.1668091,250.1520081 L673,245.4642792 L664.5237427,240.158371 Z M664.1668091,250.1520081" style="fill:rgb(119,147,60);stroke:none" clip-path="url(#clip19)" />
<clipPath id="clip20"><path d="M561,236 L677,236 L677,257 L561,257 L561,236 Z" /></clipPath>
<path d="M664.1668091,250.1520081 L673,245.4642792 L664.5237427,240.158371 Z M664.1668091,250.1520081" style="fill:none;stroke:rgb(119,147,60);stroke-width:3" clip-path="url(#clip20)" />
<clipPath id="clip21"><path d="M537,14 L717,14 L717,234 L537,234 L537,14 Z" /></clipPath>
<path d="M702.7943115,230 C713,18 711,90 541,81.2926788" style="fill:none;stroke:rgb(119,147,60);stroke-width:3;stroke-dasharray:18,9;stroke-dashoffset:0" clip-path="url(#clip21)" />
<clipPath id="clip22"><path d="M537,14 L717,14 L717,234 L537,234 L537,14 Z" /></clipPath>
<path d="M549.9046631,76.742218 L541,81.2926788 L549.3931885,86.729126 Z M549.9046631,76.742218" style="fill:rgb(119,147,60);stroke:none" clip-path="url(#clip22)" />
<clipPath id="clip23"><path d="M537,14 L717,14 L717,234 L537,234 L537,14 Z" /></clipPath>
<path d="M549.9046631,76.742218 L541,81.2926788 L549.3931885,86.729126 Z M549.9046631,76.742218" style="fill:none;stroke:rgb(119,147,60);stroke-width:3" clip-path="url(#clip23)" />
<clipPath id="clip24"><path d="M300,51 L475,51 L475,241 L300,241 L300,51 Z" /></clipPath>
<path d="M471,79.759903 C304,81 323,55 323.9168701,237" style="fill:none;stroke:rgb(119,147,60);stroke-width:3;stroke-dasharray:18,9;stroke-dashoffset:0" clip-path="url(#clip24)" />
<clipPath id="clip25"><path d="M300,51 L475,51 L475,241 L300,241 L300,51 Z" /></clipPath>
<path d="M318.873291,228.3650513 L323.9168701,237 L328.8731689,228.3146667 Z M318.873291,228.3650513" style="fill:rgb(119,147,60);stroke:none" clip-path="url(#clip25)" />
<clipPath id="clip26"><path d="M300,51 L475,51 L475,241 L300,241 L300,51 Z" /></clipPath>
<path d="M318.873291,228.3650513 L323.9168701,237 L328.8731689,228.3146667 Z M318.873291,228.3650513" style="fill:none;stroke:rgb(119,147,60);stroke-width:3" clip-path="url(#clip26)" />
</svg>
