<?xml version="1.0" encoding="UTF-8"?>
<!DOCTYPE svg PUBLIC "-//W3C//DTD SVG 1.1//EN" "http://www.w3.org/Graphics/SVG/1.1/DTD/svg11.dtd">
<svg version="1.2" xmlns="http://www.w3.org/2000/svg" xmlns:xlink="http://www.w3.org/1999/xlink" x="0" y="0" width="696" height="337" viewBox="0 0 696 337">
<style type="text/css"><![CDATA[
text { font:12px Dialog; }
]]></style>
<rect x="-1126" y="-1017" width="3332" height="2544" style="fill:rgb(255,255,255);stroke:none" />
<clipPath id="clip1"><path d="M14,15 L298,15 L298,84 L14,84 L14,15 Z" /></clipPath>
<path d="M26,19 C21.5817261,19 18,22.5817204 18,27 L18,71 C18,75.4182816 21.5817261,79 26,79 L285,79 C289.4182739,79 293,75.4182816 293,71 L293,27 C293,22.5817204 289.4182739,19 285,19 Z M26,19" style="fill:rgb(220,230,242);stroke:none" clip-path="url(#clip1)" />
<clipPath id="clip2"><path d="M14,15 L298,15 L298,84 L14,84 L14,15 Z" /></clipPath>
<path d="M26,19 C21.5817261,19 18,22.5817204 18,27 L18,71 C18,75.4182816 21.5817261,79 26,79 L285,79 C289.4182739,79 293,75.4182816 293,71 L293,27 C293,22.5817204 289.4182739,19 285,19 Z M26,19" style="fill:none;stroke:rgb(85,142,213);stroke-width:5" clip-path="url(#clip2)" />
<clipPath id="clip3"><path d="M50,35 L262,35 L262,64 L50,64 L50,35 Z" /></clipPath>
<path d="M62.0932617,54.0966797 C61.4135742,54.4951172 60.446785,54.6943359 59.1928711,54.6943359 C57.7104416,54.6943359 56.5122147,54.2431679 55.5981445,53.3408203 C54.6840744,52.4384727 54.2270508,51.2695389 54.2270508,49.8339844 C54.2270508,48.181633 54.7192307,46.8793983 55.7036133,45.9272461 C56.6879959,44.9750938 58.0004807,44.4990234 59.6411133,44.4990234 C60.7485428,44.4990234 61.5688477,44.6513672 62.1020508,44.9560547 L62.1020508,47.390625 C61.4516602,46.9160118 60.7426834,46.6787109 59.9750977,46.6787109 C59.1079025,46.6787109 58.4121094,46.942379 57.8876953,47.4697266 C57.3632813,47.9970741 57.1010742,48.7206993 57.1010742,49.640625 C57.1010742,50.5312538 57.3500977,51.2329063 57.8481445,51.7456055 C58.3461914,52.2583046 59.0229416,52.5146484 59.878418,52.5146484 C60.6342773,52.5146484 61.3725586,52.2744179 62.0932617,51.7939453 Z M63.5258789,49.640625 C63.5258789,48.041008 64.0048752,46.7841835 64.9628906,45.8701172 C65.9209061,44.9560509 67.2084885,44.4990234 68.8256836,44.4990234 C70.3901443,44.4990234 71.6323166,44.9487267 72.5522461,45.8481445 C73.4721756,46.7475624 73.9321289,47.9560471 73.9321289,49.4736328 C73.9321289,51.0673904 73.4604568,52.3359337 72.5170898,53.2792969 C71.5737228,54.2226601 70.2963943,54.6943359 68.6850586,54.6943359 C67.1030197,54.6943359 65.8476639,54.241703 64.9189453,53.3364258 C63.9902267,52.4311485 63.5258789,51.1992264 63.5258789,49.640625 Z M66.3999023,49.6054688 C66.3999023,51.5449333 67.1909103,52.5146484 68.7729492,52.5146484 C70.290535,52.5146484 71.0493164,51.5185661 71.0493164,49.5263672 C71.0493164,47.6279221 70.2846756,46.6787109 68.7553711,46.6787109 C68.0112305,46.6787109 67.4326172,46.9335899 67.0195313,47.4433594 C66.6064453,47.9531288 66.3999023,48.6738243 66.3999023,49.6054688 Z M91.1850586,54.4570313 L88.3549805,54.4570313 L88.3549805,48.9111328 C88.3549805,47.4228439 87.8129959,46.6787109 86.7290039,46.6787109 C86.2250977,46.6787109 85.8061523,46.9042931 85.472168,47.3554688 C85.1381836,47.8066444 84.9711914,48.3574181 84.9711914,49.0078125 L84.9711914,54.4570313 L82.1411133,54.4570313 L82.1411133,48.8408203 C82.1411133,47.3994064 81.6049881,46.6787109 80.5327148,46.6787109 C79.9995117,46.6787109 79.5732422,46.8940392 79.2539063,47.324707 C78.9345703,47.7553749 78.7749023,48.3251915 78.7749023,49.0341797 L78.7749023,54.4570313 L75.9360352,54.4570313 L75.9360352,44.7363281 L78.7749023,44.7363281 L78.7749023,46.2568359 L78.8100586,46.2568359 C79.1499023,45.7001915 79.6010742,45.2680664 80.1635742,44.9604492 C80.7260742,44.652832 81.3178711,44.4990234 81.9389648,44.4990234 C83.3042068,44.4990234 84.2387695,45.1113205 84.7426758,46.3359375 C85.4926758,45.1113205 86.5825119,44.4990234 88.012207,44.4990234 C90.127449,44.4990234 91.1850586,45.8056526 91.1850586,48.4189453 Z M96.449707,53.2880859 L96.449707,58.9306641 L93.6108398,58.9306641 L93.6108398,44.7363281 L96.449707,44.7363281 L96.449707,46.2216797 L96.4848633,46.2216797 C97.2290039,45.0732346 98.2807541,44.4990234 99.6401367,44.4990234 C100.8764725,44.4990234 101.8432617,44.9311485 102.5405273,45.7954102 C103.237793,46.6596718 103.5864258,47.8359299 103.5864258,49.3242188 C103.5864258,50.9472733 103.1821289,52.2480431 102.3735352,53.2265625 C101.5649414,54.2050819 100.5044022,54.6943359 99.1918945,54.6943359 C98.0024338,54.6943359 97.1000977,54.2255898 96.4848633,53.2880859 Z M96.4057617,50.1591797 C96.4057617,50.8505898 96.5932617,51.4160118 96.9682617,51.8554688 C97.3432617,52.2949257 97.8295898,52.5146484 98.4272461,52.5146484 C99.1362305,52.5146484 99.6884766,52.2392616 100.0839844,51.6884766 C100.4794922,51.1376915 100.6772461,50.3584023 100.6772461,49.3505859 C100.6772461,47.5693283 99.9829178,46.6787109 98.5942383,46.6787109 C97.949707,46.6787109 97.4238281,46.9248009 97.0166016,47.4169922 C96.609375,47.9091835 96.4057617,48.5419884 96.4057617,49.3154297 Z M105.019043,49.640625 C105.019043,48.041008 105.4980469,46.7841835 106.4560547,45.8701172 C107.4140625,44.9560509 108.7016525,44.4990234 110.3188477,44.4990234 C111.8833084,44.4990234 113.1254883,44.9487267 114.0454102,45.8481445 C114.965332,46.7475624 115.425293,47.9560471 115.425293,49.4736328 C115.425293,51.0673904 114.9536133,52.3359337 114.0102539,53.2792969 C113.0668945,54.2226601 111.7895584,54.6943359 110.1782227,54.6943359 C108.5961838,54.6943359 107.3408203,54.241703 106.4121094,53.3364258 C105.4833984,52.4311485 105.019043,51.1992264 105.019043,49.640625 Z M107.8930664,49.6054688 C107.8930664,51.5449333 108.6840744,52.5146484 110.2661133,52.5146484 C111.783699,52.5146484 112.5424805,51.5185661 112.5424805,49.5263672 C112.5424805,47.6279221 111.7778397,46.6787109 110.2485352,46.6787109 C109.5043945,46.6787109 108.9257813,46.9335899 108.5126953,47.4433594 C108.0996094,47.9531288 107.8930664,48.6738243 107.8930664,49.6054688 Z M126.6665039,54.4570313 L123.8452148,54.4570313 L123.8452148,49.0341797 C123.8452148,47.4638596 123.2797852,46.6787109 122.1489258,46.6787109 C121.6098633,46.6787109 121.1616211,46.8881798 120.8041992,47.3071289 C120.4467773,47.726078 120.2680664,48.2607384 120.2680664,48.9111328 L120.2680664,54.4570313 L117.4291992,54.4570313 L117.4291992,44.7363281 L120.2680664,44.7363281 L120.2680664,46.2832031 L120.3032227,46.2832031 C121.012207,45.0937424 122.0551682,44.4990234 123.4321289,44.4990234 C125.5883942,44.4990234 126.6665039,45.8349457 126.6665039,48.5068359 Z M137.7231445,50.3964844 L131.324707,50.3964844 C131.4243164,51.9023514 132.3325043,52.6552734 134.0493164,52.6552734 C135.121582,52.6552734 136.0678711,52.3916054 136.8881836,51.8642578 L136.8881836,53.9472656 C136.003418,54.4453163 134.8432617,54.6943359 133.4077148,54.6943359 C131.8608398,54.6943359 130.6582031,54.2578163 129.7998047,53.3847656 C128.9414063,52.5117149 128.512207,51.2959061 128.512207,49.7373047 C128.512207,48.1845627 128.9692383,46.9233437 129.8833008,45.9536133 C130.7973633,44.9838829 131.9458008,44.4990234 133.3286133,44.4990234 C134.7055664,44.4990234 135.7822266,44.9165001 136.5585938,45.7514648 C137.3349609,46.5864296 137.7231445,47.7333908 137.7231445,49.1923828 Z M135.0776367,48.6210938 C135.0776367,47.1679611 134.4887695,46.4414063 133.3110352,46.4414063 C132.824707,46.4414063 132.394043,46.640625 132.019043,47.0390625 C131.644043,47.4375038 131.409668,47.9648399 131.315918,48.6210938 Z M148.8061523,54.4570313 L145.9848633,54.4570313 L145.9848633,49.0341797 C145.9848633,47.4638596 145.4194336,46.6787109 144.2885742,46.6787109 C143.7495117,46.6787109 143.3012695,46.8881798 142.9438477,47.3071289 C142.5864258,47.726078 142.4077148,48.2607384 142.4077148,48.9111328 L142.4077148,54.4570313 L139.5688477,54.4570313 L139.5688477,44.7363281 L142.4077148,44.7363281 L142.4077148,46.2832031 L142.4428711,46.2832031 C143.1518555,45.0937424 144.1948242,44.4990234 145.5717773,44.4990234 C147.7280426,44.4990234 148.8061523,45.8349457 148.8061523,48.5068359 Z M156.9536133,54.3427734 C156.5258789,54.5771484 155.878418,54.6943359 155.0112305,54.6943359 C152.9487152,54.6943359 151.9174805,53.610363 151.9174805,51.4423828 L151.9174805,46.8544922 L150.3178711,46.8544922 L150.3178711,44.7363281 L151.9174805,44.7363281 L151.9174805,42.6005859 L154.7387695,41.7919922 L154.7387695,44.7363281 L156.9536133,44.7363281 L156.9536133,46.8544922 L154.7387695,46.8544922 L154.7387695,50.9501953 C154.7387695,51.9873085 155.1489258,52.5058594 155.9692383,52.5058594 C156.2856445,52.5058594 156.6137695,52.4121094 156.9536133,52.2246094 Z M176.5883789,40.8427734 L172.9584961,54.4570313 L169.7329102,54.4570313 L167.4125977,45.5800781 C167.2895508,45.0996056 167.2163086,44.5986366 167.1928711,44.0771484 L167.1577148,44.0771484 C167.0991211,44.6865273 167.0170898,45.1875 166.9116211,45.5800781 L164.5385742,54.4570313 L161.1899414,54.4570313 L157.5600586,40.8427734 L160.7416992,40.8427734 L162.7631836,50.0712891 C162.8510742,50.4755898 162.9125977,50.9853477 162.9477539,51.6005859 L163.0092773,51.6005859 C163.0385742,51.1201134 163.1293945,50.5957069 163.2817383,50.0273438 L165.8129883,40.8427734 L168.8979492,40.8427734 L171.2006836,50.1416016 C171.2944336,50.5107422 171.3676758,50.9912071 171.4204102,51.5830078 L171.4643555,51.5830078 C171.487793,51.0732384 171.5551758,50.5751991 171.6665039,50.0888672 L173.644043,40.8427734 Z M177.8012695,41.5986328 C177.8012695,41.1650352 177.9550781,40.8120117 178.2626953,40.5395508 C178.5703125,40.2670898 178.9643555,40.1308594 179.4448242,40.1308594 C179.9370117,40.1308594 180.3354492,40.2700195 180.6401367,40.5483398 C180.9448242,40.8266602 181.097168,41.1767578 181.097168,41.5986328 C181.097168,42.0263672 180.9418945,42.3823242 180.6313477,42.6665039 C180.3208008,42.9506836 179.925293,43.0927734 179.4448242,43.0927734 C178.9702148,43.0927734 178.5776367,42.9492188 178.2670898,42.6621094 C177.956543,42.375 177.8012695,42.0205078 177.8012695,41.5986328 Z M178.012207,54.4570313 L178.012207,44.7363281 L180.8422852,44.7363281 L180.8422852,54.4570313 Z M183.3383789,54.4570313 L183.3383789,40.0693359 L186.168457,40.0693359 L186.168457,54.4570313 Z M188.6645508,54.4570313 L188.6645508,40.0693359 L191.4946289,40.0693359 L191.4946289,54.4570313 Z M205.3022461,48.6035156 C205.3022461,52.6640816 203.4155426,54.6943359 199.6420898,54.6943359 C195.9975433,54.6943359 194.175293,52.7168159 194.175293,48.7617188 L194.175293,40.8427734 L197.0844727,40.8427734 L197.0844727,48.7792969 C197.0844727,51.0468864 197.9780273,52.1806641 199.7651367,52.1806641 C201.5229492,52.1806641 202.4018555,51.0879021 202.4018555,48.9023438 L202.4018555,40.8427734 L205.3022461,40.8427734 Z M210.8481445,53.2880859 L210.8481445,58.9306641 L208.0092773,58.9306641 L208.0092773,44.7363281 L210.8481445,44.7363281 L210.8481445,46.2216797 L210.8833008,46.2216797 C211.6274414,45.0732346 212.6791992,44.4990234 214.0385742,44.4990234 C215.2749023,44.4990234 216.2416992,44.9311485 216.9389648,45.7954102 C217.6362305,46.6596718 217.9848633,47.8359299 217.9848633,49.3242188 C217.9848633,50.9472733 217.5805664,52.2480431 216.7719727,53.2265625 C215.9633789,54.2050819 214.902832,54.6943359 213.590332,54.6943359 C212.4008789,54.6943359 211.4985352,54.2255898 210.8833008,53.2880859 Z M210.8041992,50.1591797 C210.8041992,50.8505898 210.9916992,51.4160118 211.3666992,51.8554688 C211.7416992,52.2949257 212.2280273,52.5146484 212.8256836,52.5146484 C213.534668,52.5146484 214.0869141,52.2392616 214.4824219,51.6884766 C214.8779297,51.1376915 215.0756836,50.3584023 215.0756836,49.3505859 C215.0756836,47.5693283 214.3813477,46.6787109 212.9926758,46.6787109 C212.3481445,46.6787109 211.8222656,46.9248009 211.4150391,47.4169922 C211.0078125,47.9091835 210.8041992,48.5419884 210.8041992,49.3154297 Z M229.3754883,54.4570313 L226.5454102,54.4570313 L226.5454102,53.0859375 L226.5014648,53.0859375 C225.815918,54.1582069 224.8022461,54.6943359 223.4604492,54.6943359 C222.2241211,54.6943359 221.2412109,54.2578163 220.5117188,53.3847656 C219.7822266,52.5117149 219.4174805,51.3222733 219.4174805,49.8164063 C219.4174805,48.2226486 219.8261719,46.9379921 220.6435547,45.9624023 C221.4609375,44.9868126 222.5288086,44.4990234 223.847168,44.4990234 C225.112793,44.4990234 225.9975586,44.9560509 226.5014648,45.8701172 L226.5454102,45.8701172 L226.5454102,40.0693359 L229.3754883,40.0693359 Z M226.5893555,48.9550781 C226.5893555,48.2988243 226.3916016,47.7553749 225.9960938,47.324707 C225.6005859,46.8940392 225.1069336,46.6787109 224.5151367,46.6787109 C223.8237305,46.6787109 223.2802734,46.9526329 222.8847656,47.5004883 C222.4892578,48.0483437 222.2915039,48.7910118 222.2915039,49.7285156 C222.2915039,50.6191444 222.4819336,51.3061485 222.862793,51.7895508 C223.2436523,52.272953 223.7680664,52.5146484 224.4360352,52.5146484 C225.0629883,52.5146484 225.5786133,52.2597694 225.9829102,51.75 C226.387207,51.2402306 226.5893555,50.5781288 226.5893555,49.7636719 Z M232.1967773,45.3251953 C232.6362305,45.0791016 233.2236328,44.8798828 233.9589844,44.7275391 C234.6943359,44.5751953 235.3227539,44.4990234 235.8442383,44.4990234 C238.5630035,44.4990234 239.9223633,45.8613129 239.9223633,48.5859375 L239.9223633,54.4570313 L237.2241211,54.4570313 L237.2241211,53.0419922 L237.1889648,53.0419922 C236.5268555,54.1435623 235.5571289,54.6943359 234.2797852,54.6943359 C233.3598633,54.6943359 232.6230469,54.4321327 232.0693359,53.9077148 C231.515625,53.383297 231.2387695,52.6699257 231.2387695,51.7675781 C231.2387695,49.9042892 232.3491211,48.8203125 234.5698242,48.515625 L237.2416992,48.1552734 C237.2416992,47.0244102 236.652832,46.4589844 235.4750977,46.4589844 C234.3149414,46.4589844 233.222168,46.8105431 232.1967773,47.5136719 Z M235.4047852,50.0537109 C234.3793945,50.1884766 233.8666992,50.6513634 233.8666992,51.4423828 C233.8666992,51.8056641 233.9912109,52.0986328 234.2402344,52.3212891 C234.4892578,52.5439453 234.824707,52.6552734 235.246582,52.6552734 C235.8266602,52.6552734 236.3041992,52.4501991 236.6791992,52.0400391 C237.0541992,51.629879 237.2416992,51.120121 237.2416992,50.5107422 L237.2416992,49.8164063 Z M248.0786133,54.3427734 C247.6508789,54.5771484 247.003418,54.6943359 246.1362305,54.6943359 C244.0737305,54.6943359 243.0424805,53.610363 243.0424805,51.4423828 L243.0424805,46.8544922 L241.4428711,46.8544922 L241.4428711,44.7363281 L243.0424805,44.7363281 L243.0424805,42.6005859 L245.8637695,41.7919922 L245.8637695,44.7363281 L248.0786133,44.7363281 L248.0786133,46.8544922 L245.8637695,46.8544922 L245.8637695,50.9501953 C245.8637695,51.9873085 246.2739258,52.5058594 247.0942383,52.5058594 C247.4106445,52.5058594 247.7387695,52.4121094 248.0786133,52.2246094 Z M250.0473633,45.3251953 C250.4868164,45.0791016 251.0742188,44.8798828 251.8095703,44.7275391 C252.5449219,44.5751953 253.1733398,44.4990234 253.6948242,44.4990234 C256.4135742,44.4990234 257.7729492,45.8613129 257.7729492,48.5859375 L257.7729492,54.4570313 L255.074707,54.4570313 L255.074707,53.0419922 L255.0395508,53.0419922 C254.3774414,54.1435623 253.4077148,54.6943359 252.1303711,54.6943359 C251.2104492,54.6943359 250.4736328,54.4321327 249.9199219,53.9077148 C249.3662109,53.383297 249.0893555,52.6699257 249.0893555,51.7675781 C249.0893555,49.9042892 250.199707,48.8203125 252.4204102,48.515625 L255.0922852,48.1552734 C255.0922852,47.0244102 254.503418,46.4589844 253.3256836,46.4589844 C252.1655273,46.4589844 251.0727539,46.8105431 250.0473633,47.5136719 Z M253.2553711,50.0537109 C252.2299805,50.1884766 251.7172852,50.6513634 251.7172852,51.4423828 C251.7172852,51.8056641 251.8417969,52.0986328 252.0908203,52.3212891 C252.3398438,52.5439453 252.675293,52.6552734 253.097168,52.6552734 C253.6772461,52.6552734 254.1547852,52.4501991 254.5297852,52.0400391 C254.9047852,51.629879 255.0922852,51.120121 255.0922852,50.5107422 L255.0922852,49.8164063 Z M258.9155273,54.4570313" style="fill:rgb(55,96,146);stroke:none" clip-path="url(#clip3)" />
<clipPath id="clip4"><path d="M471,56 L682,56 L682,92 L471,92 L471,56 Z" /></clipPath>
<path d="M480,57 C475.5817261,57 472,60.5817184 472,65 L472,82 C472,86.4182816 475.5817261,90 480,90 L672,90 C676.4182739,90 680,86.4182816 680,82 L680,65 C680,60.5817184 676.4182739,57 672,57 Z M480,57" style="fill:rgb(85,142,213);stroke:none" clip-path="url(#clip4)" />
<clipPath id="clip5"><path d="M483,63 L670,63 L670,85 L483,85 L483,63 Z" /></clipPath>
<path d="M487.7685547,76.7866211 L487.7685547,80.8618164 L485.7182617,80.8618164 L485.7182617,70.6103516 L487.7685547,70.6103516 L487.7685547,71.6831055 L487.7939453,71.6831055 C488.3313904,70.8536758 489.0909729,70.4389648 490.0727539,70.4389648 C490.9656677,70.4389648 491.6639099,70.7510529 492.1674805,71.3752441 C492.671051,71.9994354 492.9228516,72.8489532 492.9228516,73.9238281 C492.9228516,75.0960388 492.6308594,76.0354767 492.046875,76.7421875 C491.4628906,77.4488983 490.6969299,77.8022461 489.7490234,77.8022461 C488.8899841,77.8022461 488.2382813,77.463707 487.7939453,76.7866211 Z M487.7368164,74.5268555 C487.7368164,75.026207 487.8722229,75.4345703 488.1430664,75.7519531 C488.4139099,76.0693359 488.7651367,76.2280273 489.1967773,76.2280273 C489.7088318,76.2280273 490.107666,76.0291367 490.3933105,75.6313477 C490.6789551,75.2335587 490.8217773,74.6707382 490.8217773,73.9428711 C490.8217773,72.6564026 490.3203125,72.0131836 489.3173828,72.0131836 C488.8518982,72.0131836 488.4720764,72.190918 488.1779785,72.5463867 C487.8838806,72.9018555 487.7368164,73.3588867 487.7368164,73.9174805 Z M500.9516602,74.6982422 L496.3305664,74.6982422 C496.4024963,75.7858124 497.0584106,76.3295898 498.2983398,76.3295898 C499.0727539,76.3295898 499.7561951,76.1391602 500.3486328,75.7583008 L500.3486328,77.2626953 C499.7096252,77.6223984 498.8717651,77.8022461 497.8349609,77.8022461 C496.7177734,77.8022461 495.8492126,77.4869843 495.229248,76.8564453 C494.6092834,76.2259064 494.2993164,75.3478241 494.2993164,74.222168 C494.2993164,73.1007385 494.6293945,72.1898651 495.2895508,71.489502 C495.949707,70.7891388 496.7791443,70.4389648 497.777832,70.4389648 C498.7723083,70.4389648 499.5498962,70.7404785 500.1105957,71.3435059 C500.6712952,71.9465332 500.9516602,72.7748947 500.9516602,73.8286133 Z M499.0410156,73.4160156 C499.0410156,72.3665314 498.6157227,71.8417969 497.7651367,71.8417969 C497.4139099,71.8417969 497.1028748,71.985672 496.8320313,72.2734375 C496.5611877,72.561203 496.3919373,72.9420547 496.3242188,73.4160156 Z M507.1933594,72.4702148 C506.9436951,72.3263321 506.6411133,72.2543945 506.2856445,72.2543945 C505.8201599,72.2543945 505.4509277,72.4321289 505.1779785,72.7875977 C504.9050293,73.1430664 504.7685547,73.6318359 504.7685547,74.2539063 L504.7685547,77.6308594 L502.7182617,77.6308594 L502.7182617,70.6103516 L504.7685547,70.6103516 L504.7685547,71.9306641 L504.7939453,71.9306641 C505.1324768,70.970047 505.7481995,70.4897461 506.6411133,70.4897461 C506.8823242,70.4897461 507.0664063,70.5172501 507.1933594,70.5722656 Z M513.1743164,68.8203125 C512.8950195,68.7102814 512.6304932,68.6552734 512.3808594,68.6552734 C511.6783752,68.6552734 511.3271484,69.0445938 511.3271484,69.8232422 L511.3271484,70.6103516 L512.9267578,70.6103516 L512.9267578,72.1401367 L511.3271484,72.1401367 L511.3271484,77.6308594 L509.2768555,77.6308594 L509.2768555,72.1401367 L508.1025391,72.1401367 L508.1025391,70.6103516 L509.2768555,70.6103516 L509.2768555,69.7089844 C509.2768555,68.9091797 509.5371094,68.2701874 510.0576172,67.7919922 C510.578125,67.313797 511.2615662,67.074707 512.1079102,67.074707 C512.5395508,67.074707 512.8950195,67.1191406 513.1743164,67.2080078 Z M513.2993164,74.1523438 C513.2993164,72.9970627 513.6452637,72.0893555 514.3371582,71.4291992 C515.0290527,70.769043 515.9589844,70.4389648 517.1269531,70.4389648 C518.2568359,70.4389648 519.1539307,70.7637482 519.8183594,71.4133301 C520.4827881,72.062912 520.8149414,72.9356995 520.8149414,74.0317383 C520.8149414,75.182785 520.4742432,76.0989532 519.7929688,76.7802734 C519.1116943,77.4615936 518.1891479,77.8022461 517.0253906,77.8022461 C515.8828125,77.8022461 514.9761963,77.4753418 514.3054199,76.8215332 C513.6346436,76.1677246 513.2993164,75.2779999 513.2993164,74.1523438 Z M515.375,74.1269531 C515.375,75.5276794 515.9462891,76.2280273 517.0888672,76.2280273 C518.1849365,76.2280273 518.7329102,75.5086365 518.7329102,74.0698242 C518.7329102,72.6987228 518.1806641,72.0131836 517.0761719,72.0131836 C516.5386963,72.0131836 516.1208496,72.1972656 515.8225098,72.5654297 C515.5241699,72.9335938 515.375,73.4541016 515.375,74.1269531 Z M527.1933594,72.4702148 C526.9437256,72.3263321 526.6411133,72.2543945 526.2856445,72.2543945 C525.8201904,72.2543945 525.4509277,72.4321289 525.1779785,72.7875977 C524.9050293,73.1430664 524.7685547,73.6318359 524.7685547,74.2539063 L524.7685547,77.6308594 L522.7182617,77.6308594 L522.7182617,70.6103516 L524.7685547,70.6103516 L524.7685547,71.9306641 L524.7939453,71.9306641 C525.1324463,70.970047 525.7481689,70.4897461 526.6411133,70.4897461 C526.8823242,70.4897461 527.0664063,70.5172501 527.1933594,70.5722656 Z M539.7314453,77.6308594 L537.6875,77.6308594 L537.6875,73.6254883 C537.6875,72.5506134 537.2960205,72.0131836 536.5131836,72.0131836 C536.149292,72.0131836 535.8466797,72.1761017 535.6054688,72.5019531 C535.3642578,72.8278046 535.2436523,73.2255859 535.2436523,73.6953125 L535.2436523,77.6308594 L533.199707,77.6308594 L533.199707,73.574707 C533.199707,72.5336838 532.8125,72.0131836 532.0380859,72.0131836 C531.6529541,72.0131836 531.3450928,72.1687012 531.114502,72.4797363 C530.8839111,72.7907715 530.7685547,73.2023087 530.7685547,73.7143555 L530.7685547,77.6308594 L528.7182617,77.6308594 L528.7182617,70.6103516 L530.7685547,70.6103516 L530.7685547,71.7084961 L530.7939453,71.7084961 C531.0394287,71.3064728 531.3652344,70.9943848 531.7714844,70.7722168 C532.1777344,70.5500488 532.6051025,70.4389648 533.0537109,70.4389648 C534.0396729,70.4389648 534.7147217,70.8811798 535.0786133,71.765625 C535.6202393,70.8811798 536.4073486,70.4389648 537.4399414,70.4389648 C538.9676514,70.4389648 539.7314453,71.3826447 539.7314453,73.2700195 Z M549.855957,73.4033203 C549.855957,76.3359528 548.4933472,77.8022461 545.7680664,77.8022461 C543.1358643,77.8022461 541.8198242,76.3740387 541.8198242,73.5175781 L541.8198242,67.7983398 L543.9208984,67.7983398 L543.9208984,73.5302734 C543.9208984,75.1679764 544.5662231,75.9868164 545.8569336,75.9868164 C547.1264648,75.9868164 547.7612305,75.1976013 547.7612305,73.6191406 L547.7612305,67.7983398 L549.855957,67.7983398 Z M553.7685547,76.7866211 L553.7685547,80.8618164 L551.7182617,80.8618164 L551.7182617,70.6103516 L553.7685547,70.6103516 L553.7685547,71.6831055 L553.7939453,71.6831055 C554.3314209,70.8536758 555.0909424,70.4389648 556.0727539,70.4389648 C556.9656982,70.4389648 557.6639404,70.7510529 558.1674805,71.3752441 C558.6710205,71.9994354 558.9228516,72.8489532 558.9228516,73.9238281 C558.9228516,75.0960388 558.6308594,76.0354767 558.046875,76.7421875 C557.4628906,77.4488983 556.6968994,77.8022461 555.7490234,77.8022461 C554.8900146,77.8022461 554.2382813,77.463707 553.7939453,76.7866211 Z M553.7368164,74.5268555 C553.7368164,75.026207 553.8721924,75.4345703 554.1430664,75.7519531 C554.4139404,76.0693359 554.7651367,76.2280273 555.1967773,76.2280273 C555.7088623,76.2280273 556.107666,76.0291367 556.3933105,75.6313477 C556.6789551,75.2335587 556.8217773,74.6707382 556.8217773,73.9428711 C556.8217773,72.6564026 556.3203125,72.0131836 555.3173828,72.0131836 C554.8519287,72.0131836 554.4720459,72.190918 554.1779785,72.5463867 C553.8839111,72.9018555 553.7368164,73.3588867 553.7368164,73.9174805 Z M567.4912109,77.6308594 L565.4472656,77.6308594 L565.4472656,76.640625 L565.4155273,76.640625 C564.9204102,77.4150391 564.1883545,77.8022461 563.2192383,77.8022461 C562.3262939,77.8022461 561.6164551,77.4869843 561.0895996,76.8564453 C560.5627441,76.2259064 560.2993164,75.3668671 560.2993164,74.2792969 C560.2993164,73.1282501 560.5944824,72.2004395 561.1848145,71.4958496 C561.7751465,70.7912598 562.5463867,70.4389648 563.4985352,70.4389648 C564.4125977,70.4389648 565.0516357,70.769043 565.4155273,71.4291992 L565.4472656,71.4291992 L565.4472656,67.2397461 L567.4912109,67.2397461 Z M565.4790039,73.6572266 C565.4790039,73.1832657 565.3361816,72.7907715 565.0505371,72.4797363 C564.7648926,72.1687012 564.4083252,72.0131836 563.980957,72.0131836 C563.4815674,72.0131836 563.0891113,72.2110138 562.8034668,72.6066895 C562.5178223,73.0023651 562.375,73.5387344 562.375,74.2158203 C562.375,74.8590546 562.5125732,75.3552246 562.7875977,75.7043457 C563.0626221,76.0534668 563.4414063,76.2280273 563.9238281,76.2280273 C564.3765869,76.2280273 564.7490234,76.0439453 565.0410156,75.6757813 C565.3330078,75.3076172 565.4790039,74.8294296 565.4790039,74.2412109 Z M569.8896484,71.0356445 C570.2070313,70.8579102 570.6312256,70.714035 571.1623535,70.6040039 C571.6934814,70.4939728 572.1473389,70.4389648 572.5239258,70.4389648 C574.4874878,70.4389648 575.4692383,71.4228439 575.4692383,73.390625 L575.4692383,77.6308594 L573.5205078,77.6308594 L573.5205078,76.6088867 L573.4951172,76.6088867 C573.0169678,77.4044647 572.3165283,77.8022461 571.394043,77.8022461 C570.7296143,77.8022461 570.1975098,77.6128769 569.7976074,77.2341309 C569.3977051,76.8553848 569.1977539,76.3401718 569.1977539,75.6884766 C569.1977539,74.3427658 569.9996338,73.5598984 571.6035156,73.3398438 L573.5332031,73.0795898 C573.5332031,72.2628555 573.1079102,71.8544922 572.2573242,71.8544922 C571.4194336,71.8544922 570.630249,72.1083984 569.8896484,72.6162109 Z M572.206543,74.4506836 C571.4659424,74.5480194 571.0957031,74.8823242 571.0957031,75.4536133 C571.0957031,75.7159882 571.1856689,75.9275665 571.3654785,76.0883789 C571.5452881,76.2491913 571.7875977,76.3295898 572.0922852,76.3295898 C572.5112305,76.3295898 572.8560791,76.1814804 573.1269531,75.8852539 C573.3978271,75.5890274 573.5332031,75.220871 573.5332031,74.7807617 L573.5332031,74.2792969 Z M581.8505859,77.5483398 C581.541626,77.7176132 581.0740967,77.8022461 580.4477539,77.8022461 C578.9581299,77.8022461 578.2133789,77.0193787 578.2133789,75.4536133 L578.2133789,72.1401367 L577.0581055,72.1401367 L577.0581055,70.6103516 L578.2133789,70.6103516 L578.2133789,69.0678711 L580.2509766,68.4838867 L580.2509766,70.6103516 L581.8505859,70.6103516 L581.8505859,72.1401367 L580.2509766,72.1401367 L580.2509766,75.0981445 C580.2509766,75.847168 580.5472412,76.2216797 581.1396484,76.2216797 C581.3681641,76.2216797 581.6051025,76.1539764 581.8505859,76.0185547 Z M588.9516602,74.6982422 L584.3305664,74.6982422 C584.4024658,75.7858124 585.0584106,76.3295898 586.2983398,76.3295898 C587.0727539,76.3295898 587.7562256,76.1391602 588.3486328,75.7583008 L588.3486328,77.2626953 C587.7095947,77.6223984 586.8717651,77.8022461 585.8349609,77.8022461 C584.7177734,77.8022461 583.8492432,77.4869843 583.229248,76.8564453 C582.6092529,76.2259064 582.2993164,75.3478241 582.2993164,74.222168 C582.2993164,73.1007385 582.6293945,72.1898651 583.2895508,71.489502 C583.949707,70.7891388 584.7791748,70.4389648 585.777832,70.4389648 C586.7723389,70.4389648 587.5499268,70.7404785 588.1105957,71.3435059 C588.6712646,71.9465332 588.9516602,72.7748947 588.9516602,73.8286133 Z M587.0410156,73.4160156 C587.0410156,72.3665314 586.6157227,71.8417969 585.7651367,71.8417969 C585.4139404,71.8417969 585.1029053,71.985672 584.8320313,72.2734375 C584.5611572,72.561203 584.3919678,72.9420547 584.3242188,73.4160156 Z M593.8540039,69.4296875 L593.0097656,69.4296875 L593.0097656,75.9995117 L593.8540039,75.9995117 L593.8540039,77.6308594 L590.0834961,77.6308594 L590.0834961,75.9995117 L590.9150391,75.9995117 L590.9150391,69.4296875 L590.0834961,69.4296875 L590.0834961,67.7983398 L593.8540039,67.7983398 Z M599.1743164,68.8203125 C598.8950195,68.7102814 598.6304932,68.6552734 598.3808594,68.6552734 C597.6783447,68.6552734 597.3271484,69.0445938 597.3271484,69.8232422 L597.3271484,70.6103516 L598.9267578,70.6103516 L598.9267578,72.1401367 L597.3271484,72.1401367 L597.3271484,77.6308594 L595.2768555,77.6308594 L595.2768555,72.1401367 L594.1025391,72.1401367 L594.1025391,70.6103516 L595.2768555,70.6103516 L595.2768555,69.7089844 C595.2768555,68.9091797 595.5371094,68.2701874 596.0576172,67.7919922 C596.578125,67.313797 597.2615967,67.074707 598.1079102,67.074707 C598.5395508,67.074707 598.8950195,67.1191406 599.1743164,67.2080078 Z M608.6621094,77.6308594 L606.5166016,77.6308594 L602.3525391,71.2705078 C602.1367188,70.9404297 601.9801025,70.6738281 601.8828125,70.4707031 L601.8510742,70.4707031 C601.8891602,70.8092499 601.9082031,71.3318634 601.9082031,72.0385742 L601.9082031,77.6308594 L599.9213867,77.6308594 L599.9213867,67.7983398 L602.206543,67.7983398 L606.2182617,73.980957 C606.4848633,74.3914413 606.6478271,74.6516876 606.7070313,74.7617188 L606.7387695,74.7617188 C606.6964111,74.5247345 606.675293,74.0719452 606.675293,73.4033203 L606.675293,67.7983398 L608.6621094,67.7983398 Z M616.9516602,74.6982422 L612.3305664,74.6982422 C612.4024658,75.7858124 613.0584106,76.3295898 614.2983398,76.3295898 C615.0727539,76.3295898 615.7562256,76.1391602 616.3486328,75.7583008 L616.3486328,77.2626953 C615.7095947,77.6223984 614.8717651,77.8022461 613.8349609,77.8022461 C612.7177734,77.8022461 611.8492432,77.4869843 611.229248,76.8564453 C610.6092529,76.2259064 610.2993164,75.3478241 610.2993164,74.222168 C610.2993164,73.1007385 610.6293945,72.1898651 611.2895508,71.489502 C611.949707,70.7891388 612.7791748,70.4389648 613.777832,70.4389648 C614.7723389,70.4389648 615.5499268,70.7404785 616.1105957,71.3435059 C616.6712646,71.9465332 616.9516602,72.7748947 616.9516602,73.8286133 Z M615.0410156,73.4160156 C615.0410156,72.3665314 614.6157227,71.8417969 613.7651367,71.8417969 C613.4139404,71.8417969 613.1029053,71.985672 612.8320313,72.2734375 C612.5611572,72.561203 612.3919678,72.9420547 612.3242188,73.4160156 Z M623.9804688,77.3706055 C623.489624,77.658371 622.7913818,77.8022461 621.8857422,77.8022461 C620.8150635,77.8022461 619.949707,77.4764023 619.2895508,76.824707 C618.6293945,76.1730118 618.2993164,75.3287811 618.2993164,74.2919922 C618.2993164,73.0986252 618.6547852,72.1581268 619.3657227,71.470459 C620.0766602,70.7827911 621.0245361,70.4389648 622.2094727,70.4389648 C623.0092773,70.4389648 623.6016846,70.5489883 623.9868164,70.769043 L623.9868164,72.5273438 C623.5170898,72.1845703 623.0050049,72.0131836 622.4506836,72.0131836 C621.8243408,72.0131836 621.3218994,72.2036133 620.9431152,72.5844727 C620.5643311,72.965332 620.375,73.4879532 620.375,74.1523438 C620.375,74.795578 620.5548096,75.3023224 620.9145508,75.6726074 C621.274292,76.0428925 621.7630615,76.2280273 622.3808594,76.2280273 C622.9267578,76.2280273 623.4599609,76.0545273 623.9804688,75.7075195 Z M631.9516602,74.6982422 L627.3305664,74.6982422 C627.4024658,75.7858124 628.0584106,76.3295898 629.2983398,76.3295898 C630.0727539,76.3295898 630.7562256,76.1391602 631.3486328,75.7583008 L631.3486328,77.2626953 C630.7095947,77.6223984 629.8717651,77.8022461 628.8349609,77.8022461 C627.7177734,77.8022461 626.8492432,77.4869843 626.229248,76.8564453 C625.6092529,76.2259064 625.2993164,75.3478241 625.2993164,74.222168 C625.2993164,73.1007385 625.6293945,72.1898651 626.2895508,71.489502 C626.949707,70.7891388 627.7791748,70.4389648 628.777832,70.4389648 C629.7723389,70.4389648 630.5499268,70.7404785 631.1105957,71.3435059 C631.6712646,71.9465332 631.9516602,72.7748947 631.9516602,73.8286133 Z M630.0410156,73.4160156 C630.0410156,72.3665314 629.6157227,71.8417969 628.7651367,71.8417969 C628.4139404,71.8417969 628.1029053,71.985672 627.8320313,72.2734375 C627.5611572,72.561203 627.3919678,72.9420547 627.3242188,73.4160156 Z M633.5341797,75.7456055 C634.2366943,76.1730194 634.9243164,76.3867188 635.597168,76.3867188 C636.4434814,76.3867188 636.8666992,76.1603241 636.8666992,75.7075195 C636.8666992,75.3859024 636.5175781,75.1171875 635.8193359,74.9013672 C634.9476318,74.6305313 634.3487549,74.3290253 634.0229492,73.9968262 C633.6971436,73.6646271 633.5341797,73.2150116 633.5341797,72.6479492 C633.5341797,71.958168 633.8134766,71.4175644 634.3720703,71.026123 C634.9306641,70.6346817 635.6627197,70.4389648 636.5683594,70.4389648 C637.2115479,70.4389648 637.831543,70.5341797 638.4282227,70.7246094 L638.4282227,72.3369141 C637.8823242,72.0152969 637.2813721,71.8544922 636.6254883,71.8544922 C636.2996826,71.8544922 636.0372314,71.912674 635.8383789,72.0290527 C635.6395264,72.1454315 635.5400391,72.2988281 635.5400391,72.4892578 C635.5400391,72.8108749 635.8363037,73.0711212 636.4287109,73.2700195 C637.0634766,73.4816132 637.5406494,73.6741486 637.8601074,73.8476563 C638.1795654,74.0211639 638.4229736,74.2496719 638.5900879,74.5332031 C638.7572021,74.8167343 638.8408203,75.1446915 638.8408203,75.5170898 C638.8408203,76.2407227 638.5509033,76.8024902 637.9711914,77.2023926 C637.3914795,77.6022949 636.6170654,77.8022461 635.6479492,77.8022461 C634.8862305,77.8022461 634.1816406,77.6816406 633.5341797,77.4404297 Z M639.5341797,75.7456055 C640.2366943,76.1730194 640.9243164,76.3867188 641.597168,76.3867188 C642.4434814,76.3867188 642.8666992,76.1603241 642.8666992,75.7075195 C642.8666992,75.3859024 642.5175781,75.1171875 641.8193359,74.9013672 C640.9476318,74.6305313 640.3487549,74.3290253 640.0229492,73.9968262 C639.6971436,73.6646271 639.5341797,73.2150116 639.5341797,72.6479492 C639.5341797,71.958168 639.8134766,71.4175644 640.3720703,71.026123 C640.9306641,70.6346817 641.6627197,70.4389648 642.5683594,70.4389648 C643.2115479,70.4389648 643.831543,70.5341797 644.4282227,70.7246094 L644.4282227,72.3369141 C643.8823242,72.0152969 643.2813721,71.8544922 642.6254883,71.8544922 C642.2996826,71.8544922 642.0372314,71.912674 641.8383789,72.0290527 C641.6395264,72.1454315 641.5400391,72.2988281 641.5400391,72.4892578 C641.5400391,72.8108749 641.8363037,73.0711212 642.4287109,73.2700195 C643.0634766,73.4816132 643.5406494,73.6741486 643.8601074,73.8476563 C644.1795654,74.0211639 644.4229736,74.2496719 644.5900879,74.5332031 C644.7572021,74.8167343 644.8408203,75.1446915 644.8408203,75.5170898 C644.8408203,76.2407227 644.5509033,76.8024902 643.9711914,77.2023926 C643.3914795,77.6022949 642.6170654,77.8022461 641.6479492,77.8022461 C640.8862305,77.8022461 640.1816406,77.6816406 639.5341797,77.4404297 Z M645.8896484,71.0356445 C646.2070313,70.8579102 646.6312256,70.714035 647.1623535,70.6040039 C647.6934814,70.4939728 648.1473389,70.4389648 648.5239258,70.4389648 C650.4874878,70.4389648 651.4692383,71.4228439 651.4692383,73.390625 L651.4692383,77.6308594 L649.5205078,77.6308594 L649.5205078,76.6088867 L649.4951172,76.6088867 C649.0169678,77.4044647 648.3165283,77.8022461 647.394043,77.8022461 C646.7296143,77.8022461 646.1975098,77.6128769 645.7976074,77.2341309 C645.3977051,76.8553848 645.1977539,76.3401718 645.1977539,75.6884766 C645.1977539,74.3427658 645.9996338,73.5598984 647.6035156,73.3398438 L649.5332031,73.0795898 C649.5332031,72.2628555 649.1079102,71.8544922 648.2573242,71.8544922 C647.4194336,71.8544922 646.630249,72.1083984 645.8896484,72.6162109 Z M648.206543,74.4506836 C647.4659424,74.5480194 647.0957031,74.8823242 647.0957031,75.4536133 C647.0957031,75.7159882 647.1856689,75.9275665 647.3654785,76.0883789 C647.5452881,76.2491913 647.7875977,76.3295898 648.0922852,76.3295898 C648.5112305,76.3295898 648.8560791,76.1814804 649.1269531,75.8852539 C649.3978271,75.5890274 649.5332031,75.220871 649.5332031,74.7807617 L649.5332031,74.2792969 Z M658.1933594,72.4702148 C657.9437256,72.3263321 657.6411133,72.2543945 657.2856445,72.2543945 C656.8201904,72.2543945 656.4509277,72.4321289 656.1779785,72.7875977 C655.9050293,73.1430664 655.7685547,73.6318359 655.7685547,74.2539063 L655.7685547,77.6308594 L653.7182617,77.6308594 L653.7182617,70.6103516 L655.7685547,70.6103516 L655.7685547,71.9306641 L655.7939453,71.9306641 C656.1324463,70.970047 656.7481689,70.4897461 657.6411133,70.4897461 C657.8823242,70.4897461 658.0664063,70.5172501 658.1933594,70.5722656 Z M666.2817383,70.6103516 L663.387207,78.2592773 C662.7143555,80.0366287 661.7072144,80.925293 660.3657227,80.925293 C659.836792,80.925293 659.4262695,80.870285 659.1342773,80.7602539 L659.1342773,79.1162109 C659.4093018,79.272789 659.7119141,79.3510742 660.0419922,79.3510742 C660.6005859,79.3510742 660.9941406,79.080246 661.2226563,78.5385742 L661.6098633,77.6181641 L658.7724609,70.6103516 L661.0449219,70.6103516 L662.4160156,75.0092773 C662.5006104,75.2758789 662.5620117,75.5742188 662.6000977,75.9042969 L662.6381836,75.9042969 C662.6678467,75.6800079 662.7376709,75.38591 662.8476563,75.0219727 L664.2504883,70.6103516 Z M666.25,77.6308594" style="fill:rgb(255,255,255);stroke:none" clip-path="url(#clip5)" />
<clipPath id="clip6"><path d="M487,246 L642,246 L642,282 L487,282 L487,246 Z" /></clipPath>
<path d="M496,247 C491.5817261,247 488,250.5817261 488,255 L488,272 C488,276.4182739 491.5817261,280 496,280 L632,280 C636.4182739,280 640,276.4182739 640,272 L640,255 C640,250.5817261 636.4182739,247 632,247 Z M496,247" style="fill:rgb(85,142,213);stroke:none" clip-path="url(#clip6)" />
<clipPath id="clip7"><path d="M499,253 L630,253 L630,275 L499,275 L499,253 Z" /></clipPath>
<path d="M508.5512695,267.5800781 L506.5136719,267.5800781 L506.5136719,266.5073242 L506.4819336,266.5073242 C505.9571838,267.3367615 505.2398987,267.7514648 504.3300781,267.7514648 C502.6965942,267.7514648 501.8798828,266.7654724 501.8798828,264.793457 L501.8798828,260.5595703 L503.9301758,260.5595703 L503.9301758,264.6030273 C503.9301758,265.6525269 504.3406677,266.1772461 505.1616211,266.1772461 C505.572113,266.1772461 505.9000549,266.0333862 506.1455078,265.7456055 C506.3909607,265.4578247 506.5136719,265.0685425 506.5136719,264.5776367 L506.5136719,260.5595703 L508.5512695,260.5595703 Z M512.0380859,266.7358398 L512.0380859,270.8110352 L509.987793,270.8110352 L509.987793,260.5595703 L512.0380859,260.5595703 L512.0380859,261.6323242 L512.0634766,261.6323242 C512.6009521,260.802887 513.3604736,260.3881836 514.3422852,260.3881836 C515.2352295,260.3881836 515.9334717,260.7002563 516.4370117,261.3244629 C516.9405518,261.9486694 517.1923828,262.7981567 517.1923828,263.8730469 C517.1923828,265.0452576 516.9003906,265.9846802 516.3164063,266.6914063 C515.7324219,267.3981323 514.9664307,267.7514648 514.0185547,267.7514648 C513.1595459,267.7514648 512.5078125,267.4129333 512.0634766,266.7358398 Z M512.0063477,264.4760742 C512.0063477,264.9754028 512.1417236,265.3837891 512.4125977,265.7011719 C512.6834717,266.0185547 513.034668,266.1772461 513.4663086,266.1772461 C513.9783936,266.1772461 514.3771973,265.9783325 514.6628418,265.5805664 C514.9484863,265.1828003 515.0913086,264.6199646 515.0913086,263.8920898 C515.0913086,262.6056213 514.5898438,261.9624023 513.5869141,261.9624023 C513.12146,261.9624023 512.7415771,262.1401367 512.4475098,262.4956055 C512.1534424,262.8510742 512.0063477,263.3081055 512.0063477,263.8666992 Z M525.7607422,267.5800781 L523.7167969,267.5800781 L523.7167969,266.5898438 L523.6850586,266.5898438 C523.1899414,267.3642578 522.4578857,267.7514648 521.4887695,267.7514648 C520.5958252,267.7514648 519.8859863,267.4362183 519.3591309,266.8056641 C518.8322754,266.1751099 518.5688477,265.3161011 518.5688477,264.2285156 C518.5688477,263.0774536 518.8640137,262.1496582 519.4543457,261.4450684 C520.0446777,260.7404785 520.815918,260.3881836 521.7680664,260.3881836 C522.6821289,260.3881836 523.321167,260.7182617 523.6850586,261.378418 L523.7167969,261.378418 L523.7167969,257.1889648 L525.7607422,257.1889648 Z M523.7485352,263.6064453 C523.7485352,263.1325073 523.6057129,262.7399902 523.3200684,262.4289551 C523.0344238,262.1179199 522.6778564,261.9624023 522.2504883,261.9624023 C521.7510986,261.9624023 521.3586426,262.1602173 521.072998,262.5559082 C520.7873535,262.9515991 520.6445313,263.4879456 520.6445313,264.1650391 C520.6445313,264.8082886 520.7821045,265.3044434 521.0571289,265.6535645 C521.3321533,266.0026855 521.7109375,266.1772461 522.1933594,266.1772461 C522.6461182,266.1772461 523.0185547,265.9931641 523.3105469,265.625 C523.6025391,265.2568359 523.7485352,264.778656 523.7485352,264.1904297 Z M528.1591797,260.9848633 C528.4765625,260.8071289 528.9007568,260.663269 529.4318848,260.5532227 C529.9630127,260.4431763 530.4168701,260.3881836 530.793457,260.3881836 C532.757019,260.3881836 533.7387695,261.3720703 533.7387695,263.3398438 L533.7387695,267.5800781 L531.7900391,267.5800781 L531.7900391,266.5581055 L531.7646484,266.5581055 C531.286499,267.3536987 530.5860596,267.7514648 529.6635742,267.7514648 C528.9991455,267.7514648 528.467041,267.5620728 528.0671387,267.1833496 C527.6672363,266.8046265 527.4672852,266.2893982 527.4672852,265.6376953 C527.4672852,264.2919922 528.269165,263.5090942 529.8730469,263.2890625 L531.8027344,263.0288086 C531.8027344,262.2120667 531.3774414,261.8037109 530.5268555,261.8037109 C529.6889648,261.8037109 528.8997803,262.0576172 528.1591797,262.5654297 Z M530.4760742,264.3999023 C529.7354736,264.4972534 529.3652344,264.831543 529.3652344,265.402832 C529.3652344,265.6652222 529.4552002,265.87677 529.6350098,266.0375977 C529.8148193,266.1984253 530.0571289,266.2788086 530.3618164,266.2788086 C530.7807617,266.2788086 531.1256104,266.1306763 531.3964844,265.8344727 C531.6673584,265.538269 531.8027344,265.170105 531.8027344,264.7299805 L531.8027344,264.2285156 Z M540.1201172,267.4975586 C539.8111572,267.6668091 539.3436279,267.7514648 538.7172852,267.7514648 C537.2276611,267.7514648 536.4829102,266.9685974 536.4829102,265.402832 L536.4829102,262.0893555 L535.3276367,262.0893555 L535.3276367,260.5595703 L536.4829102,260.5595703 L536.4829102,259.0170898 L538.5205078,258.4331055 L538.5205078,260.5595703 L540.1201172,260.5595703 L540.1201172,262.0893555 L538.5205078,262.0893555 L538.5205078,265.0473633 C538.5205078,265.7963867 538.8167725,266.1708984 539.4091797,266.1708984 C539.6376953,266.1708984 539.8746338,266.1032104 540.1201172,265.9677734 Z M547.2211914,264.6474609 L542.6000977,264.6474609 C542.6719971,265.7350464 543.3279419,266.2788086 544.5678711,266.2788086 C545.3422852,266.2788086 546.0257568,266.0883789 546.6181641,265.7075195 L546.6181641,267.2119141 C545.979126,267.5715942 545.1412964,267.7514648 544.1044922,267.7514648 C542.9873047,267.7514648 542.1187744,267.4362183 541.4987793,266.8056641 C540.8787842,266.1751099 540.5688477,265.2970581 540.5688477,264.1713867 C540.5688477,263.0499573 540.8989258,262.1390991 541.559082,261.4387207 C542.2192383,260.7383423 543.0487061,260.3881836 544.0473633,260.3881836 C545.0418701,260.3881836 545.819458,260.6896973 546.380127,261.2927246 C546.9407959,261.895752 547.2211914,262.7241211 547.2211914,263.777832 Z M545.3105469,263.3652344 C545.3105469,262.3157349 544.8852539,261.7910156 544.034668,261.7910156 C543.6834717,261.7910156 543.3724365,261.9348755 543.1015625,262.2226563 C542.8306885,262.510437 542.661499,262.8912964 542.59375,263.3652344 Z M556.2050781,267.2246094 C555.4898682,267.5758667 554.5568237,267.7514648 553.4057617,267.7514648 C551.9246216,267.7514648 550.7492676,267.308197 549.8796387,266.4216309 C549.0100098,265.5350647 548.5751953,264.353363 548.5751953,262.8764648 C548.5751953,261.3233948 549.060791,260.0528259 550.0319824,259.0646973 C551.0031738,258.0765686 552.2568359,257.5825195 553.7929688,257.5825195 C554.75354,257.5825195 555.5576172,257.7073364 556.2050781,257.9570313 L556.2050781,259.9819336 C555.5406494,259.5925903 554.7874756,259.3979492 553.9453125,259.3979492 C552.9847412,259.3979492 552.2166748,259.7047424 551.6411133,260.3183594 C551.0655518,260.9319763 550.777832,261.7338867 550.777832,262.7241211 C550.777832,263.6889648 551.0507813,264.4654846 551.5966797,265.0537109 C552.1425781,265.6419373 552.8809814,265.9360352 553.8120117,265.9360352 C554.6879883,265.9360352 555.4857178,265.7244263 556.2050781,265.3012695 Z M557.5688477,264.1015625 C557.5688477,262.9462891 557.9147949,262.0385742 558.6066895,261.378418 C559.298584,260.7182617 560.2285156,260.3881836 561.3964844,260.3881836 C562.5263672,260.3881836 563.4234619,260.7129517 564.0878906,261.3625488 C564.7523193,262.012146 565.0844727,262.8849182 565.0844727,263.980957 C565.0844727,265.132019 564.7437744,266.0481567 564.0625,266.7294922 C563.3812256,267.4108276 562.4586792,267.7514648 561.2949219,267.7514648 C560.1523438,267.7514648 559.2457275,267.4245605 558.5749512,266.770752 C557.9041748,266.1169434 557.5688477,265.2272339 557.5688477,264.1015625 Z M559.6445313,264.0761719 C559.6445313,265.4768982 560.2158203,266.1772461 561.3583984,266.1772461 C562.4544678,266.1772461 563.0024414,265.4578552 563.0024414,264.019043 C563.0024414,262.6479492 562.4501953,261.9624023 561.3457031,261.9624023 C560.8082275,261.9624023 560.3903809,262.1464844 560.092041,262.5146484 C559.7937012,262.8828125 559.6445313,263.4033203 559.6445313,264.0761719 Z M578.0009766,267.5800781 L575.9570313,267.5800781 L575.9570313,263.574707 C575.9570313,262.4998169 575.5655518,261.9624023 574.7827148,261.9624023 C574.4188232,261.9624023 574.1162109,262.1253052 573.875,262.4511719 C573.6337891,262.7770386 573.5131836,263.1748047 573.5131836,263.6445313 L573.5131836,267.5800781 L571.4692383,267.5800781 L571.4692383,263.5239258 C571.4692383,262.4829102 571.0820313,261.9624023 570.3076172,261.9624023 C569.9224854,261.9624023 569.614624,262.1179199 569.3840332,262.4289551 C569.1534424,262.7399902 569.0380859,263.1515198 569.0380859,263.6635742 L569.0380859,267.5800781 L566.987793,267.5800781 L566.987793,260.5595703 L569.0380859,260.5595703 L569.0380859,261.6577148 L569.0634766,261.6577148 C569.30896,261.2556763 569.6347656,260.9436035 570.0410156,260.7214355 C570.4472656,260.4992676 570.8746338,260.3881836 571.3232422,260.3881836 C572.3092041,260.3881836 572.9842529,260.8303833 573.3481445,261.7148438 C573.8897705,260.8303833 574.6768799,260.3881836 575.7094727,260.3881836 C577.2371826,260.3881836 578.0009766,261.3318481 578.0009766,263.2192383 Z M582.0380859,266.7358398 L582.0380859,270.8110352 L579.987793,270.8110352 L579.987793,260.5595703 L582.0380859,260.5595703 L582.0380859,261.6323242 L582.0634766,261.6323242 C582.6009521,260.802887 583.3604736,260.3881836 584.3422852,260.3881836 C585.2352295,260.3881836 585.9334717,260.7002563 586.4370117,261.3244629 C586.9405518,261.9486694 587.1923828,262.7981567 587.1923828,263.8730469 C587.1923828,265.0452576 586.9003906,265.9846802 586.3164063,266.6914063 C585.7324219,267.3981323 584.9664307,267.7514648 584.0185547,267.7514648 C583.1595459,267.7514648 582.5078125,267.4129333 582.0634766,266.7358398 Z M582.0063477,264.4760742 C582.0063477,264.9754028 582.1417236,265.3837891 582.4125977,265.7011719 C582.6834717,266.0185547 583.034668,266.1772461 583.4663086,266.1772461 C583.9783936,266.1772461 584.3771973,265.9783325 584.6628418,265.5805664 C584.9484863,265.1828003 585.0913086,264.6199646 585.0913086,263.8920898 C585.0913086,262.6056213 584.5898438,261.9624023 583.5869141,261.9624023 C583.12146,261.9624023 582.7415771,262.1401367 582.4475098,262.4956055 C582.1534424,262.8510742 582.0063477,263.3081055 582.0063477,263.8666992 Z M588.5688477,264.1015625 C588.5688477,262.9462891 588.9147949,262.0385742 589.6066895,261.378418 C590.298584,260.7182617 591.2285156,260.3881836 592.3964844,260.3881836 C593.5263672,260.3881836 594.4234619,260.7129517 595.0878906,261.3625488 C595.7523193,262.012146 596.0844727,262.8849182 596.0844727,263.980957 C596.0844727,265.132019 595.7437744,266.0481567 595.0625,266.7294922 C594.3812256,267.4108276 593.4586792,267.7514648 592.2949219,267.7514648 C591.1523438,267.7514648 590.2457275,267.4245605 589.5749512,266.770752 C588.9041748,266.1169434 588.5688477,265.2272339 588.5688477,264.1015625 Z M590.6445313,264.0761719 C590.6445313,265.4768982 591.2158203,266.1772461 592.3583984,266.1772461 C593.4544678,266.1772461 594.0024414,265.4578552 594.0024414,264.019043 C594.0024414,262.6479492 593.4501953,261.9624023 592.3457031,261.9624023 C591.8082275,261.9624023 591.3903809,262.1464844 591.092041,262.5146484 C590.7937012,262.8828125 590.6445313,263.4033203 590.6445313,264.0761719 Z M604.6591797,267.5800781 L602.621582,267.5800781 L602.621582,263.6635742 C602.621582,262.5294495 602.2132568,261.9624023 601.3964844,261.9624023 C601.0072021,261.9624023 600.6834717,262.1137085 600.425293,262.4162598 C600.1671143,262.718811 600.0380859,263.1049805 600.0380859,263.574707 L600.0380859,267.5800781 L597.987793,267.5800781 L597.987793,260.5595703 L600.0380859,260.5595703 L600.0380859,261.6767578 L600.0634766,261.6767578 C600.5755615,260.817688 601.3287354,260.3881836 602.3232422,260.3881836 C603.8805542,260.3881836 604.6591797,261.3530273 604.6591797,263.2827148 Z M612.2211914,264.6474609 L607.6000977,264.6474609 C607.6719971,265.7350464 608.3279419,266.2788086 609.5678711,266.2788086 C610.3422852,266.2788086 611.0257568,266.0883789 611.6181641,265.7075195 L611.6181641,267.2119141 C610.979126,267.5715942 610.1412964,267.7514648 609.1044922,267.7514648 C607.9873047,267.7514648 607.1187744,267.4362183 606.4987793,266.8056641 C605.8787842,266.1751099 605.5688477,265.2970581 605.5688477,264.1713867 C605.5688477,263.0499573 605.8989258,262.1390991 606.559082,261.4387207 C607.2192383,260.7383423 608.0487061,260.3881836 609.0473633,260.3881836 C610.0418701,260.3881836 610.819458,260.6896973 611.380127,261.2927246 C611.9407959,261.895752 612.2211914,262.7241211 612.2211914,263.777832 Z M610.3105469,263.3652344 C610.3105469,262.3157349 609.8852539,261.7910156 609.034668,261.7910156 C608.6834717,261.7910156 608.3724365,261.9348755 608.1015625,262.2226563 C607.8306885,262.510437 607.661499,262.8912964 607.59375,263.3652344 Z M620.6591797,267.5800781 L618.621582,267.5800781 L618.621582,263.6635742 C618.621582,262.5294495 618.2132568,261.9624023 617.3964844,261.9624023 C617.0072021,261.9624023 616.6834717,262.1137085 616.425293,262.4162598 C616.1671143,262.718811 616.0380859,263.1049805 616.0380859,263.574707 L616.0380859,267.5800781 L613.987793,267.5800781 L613.987793,260.5595703 L616.0380859,260.5595703 L616.0380859,261.6767578 L616.0634766,261.6767578 C616.5755615,260.817688 617.3287354,260.3881836 618.3232422,260.3881836 C619.8805542,260.3881836 620.6591797,261.3530273 620.6591797,263.2827148 Z M626.1201172,267.4975586 C625.8111572,267.6668091 625.3436279,267.7514648 624.7172852,267.7514648 C623.2276611,267.7514648 622.4829102,266.9685974 622.4829102,265.402832 L622.4829102,262.0893555 L621.3276367,262.0893555 L621.3276367,260.5595703 L622.4829102,260.5595703 L622.4829102,259.0170898 L624.5205078,258.4331055 L624.5205078,260.5595703 L626.1201172,260.5595703 L626.1201172,262.0893555 L624.5205078,262.0893555 L624.5205078,265.0473633 C624.5205078,265.7963867 624.8167725,266.1708984 625.4091797,266.1708984 C625.6376953,266.1708984 625.8746338,266.1032104 626.1201172,265.9677734 Z M626.4375,267.5800781" style="fill:rgb(255,255,255);stroke:none" clip-path="url(#clip7)" />
<clipPath id="clip8"><path d="M27,253 L228,253 L228,289 L27,289 L27,253 Z" /></clipPath>
<path d="M36,254 C31.5817184,254 28,257.5817261 28,262 L28,279 C28,283.4182739 31.5817184,287 36,287 L218,287 C222.4182739,287 226,283.4182739 226,279 L226,262 C226,257.5817261 222.4182739,254 218,254 Z M36,254" style="fill:rgb(85,142,213);stroke:none" clip-path="url(#clip8)" />
<clipPath id="clip9"><path d="M39,260 L216,260 L216,282 L39,282 L39,260 Z" /></clipPath>
<path d="M42.2912598,272.6948242 C42.9937363,273.1222534 43.6813965,273.3359375 44.354248,273.3359375 C45.2006073,273.3359375 45.6237793,273.1095581 45.6237793,272.6567383 C45.6237793,272.335144 45.2746582,272.0664063 44.576416,271.8505859 C43.7046661,271.5797729 43.1058807,271.2782593 42.7800293,270.9460449 C42.4541779,270.6138306 42.2912598,270.1642456 42.2912598,269.597168 C42.2912598,268.9073792 42.5705566,268.3667603 43.1291504,267.9753418 C43.6877441,267.5839233 44.419838,267.3881836 45.3254395,267.3881836 C45.9686737,267.3881836 46.588623,267.4833984 47.1853027,267.6738281 L47.1853027,269.2861328 C46.6394043,268.9645386 46.0384979,268.8037109 45.3825684,268.8037109 C45.0567169,268.8037109 44.7943497,268.8618774 44.595459,268.9782715 C44.3965683,269.0946655 44.2971191,269.2480469 44.2971191,269.4384766 C44.2971191,269.7600708 44.593338,270.0203247 45.185791,270.2192383 C45.8205566,270.4308472 46.2976837,270.6233521 46.6171875,270.796875 C46.9366913,270.9703979 47.1800156,271.1989136 47.347168,271.4824219 C47.5143204,271.7659302 47.5979004,272.0939331 47.5979004,272.4663086 C47.5979004,273.1899414 47.3080292,273.751709 46.7282715,274.1516113 C46.1485138,274.5515137 45.3741074,274.7514648 44.4050293,274.7514648 C43.6433105,274.7514648 42.9387207,274.6308594 42.2912598,274.3896484 Z M55.1086426,274.5800781 L53.0646973,274.5800781 L53.0646973,270.5810547 C53.0646973,269.5019531 52.6711502,268.9624023 51.8840332,268.9624023 C51.4904785,268.9624023 51.1656952,269.1126099 50.909668,269.4130859 C50.6536407,269.713562 50.5256348,270.1028442 50.5256348,270.5810547 L50.5256348,274.5800781 L48.4753418,274.5800781 L48.4753418,264.1889648 L50.5256348,264.1889648 L50.5256348,268.6132813 L50.5510254,268.6132813 C51.0884628,267.7965393 51.812088,267.3881836 52.7219238,267.3881836 C54.3130798,267.3881836 55.1086426,268.3487854 55.1086426,270.2700195 Z M56.0563965,271.1015625 C56.0563965,269.9462891 56.4023438,269.0385742 57.0942383,268.378418 C57.7861328,267.7182617 58.7160568,267.3881836 59.8840332,267.3881836 C61.0139236,267.3881836 61.9110489,267.7129517 62.5754395,268.3625488 C63.23983,269.012146 63.5720215,269.8849182 63.5720215,270.980957 C63.5720215,272.132019 63.231369,273.0481567 62.5500488,273.7294922 C61.8687286,274.4108276 60.9462128,274.7514648 59.7824707,274.7514648 C58.6398849,274.7514648 57.7332382,274.4245605 57.0625,273.770752 C56.3917618,273.1169434 56.0563965,272.2272339 56.0563965,271.1015625 Z M58.1320801,271.0761719 C58.1320801,272.4768982 58.7033615,273.1772461 59.8459473,273.1772461 C60.9419785,273.1772461 61.4899902,272.4578552 61.4899902,271.019043 C61.4899902,269.6479492 60.9377518,268.9624023 59.833252,268.9624023 C59.2958145,268.9624023 58.8779297,269.1464844 58.5795898,269.5146484 C58.28125,269.8828125 58.1320801,270.4033203 58.1320801,271.0761719 Z M72.0388184,274.5800781 L70.0012207,274.5800781 L70.0012207,273.5073242 L69.9694824,273.5073242 C69.4447403,274.3367615 68.7274628,274.7514648 67.817627,274.7514648 C66.1841583,274.7514648 65.3674316,273.7654724 65.3674316,271.793457 L65.3674316,267.5595703 L67.4177246,267.5595703 L67.4177246,271.6030273 C67.4177246,272.6525269 67.8282013,273.1772461 68.6491699,273.1772461 C69.0596542,273.1772461 69.3876114,273.0333862 69.6330566,272.7456055 C69.8785019,272.4578247 70.0012207,272.0685425 70.0012207,271.5776367 L70.0012207,267.5595703 L72.0388184,267.5595703 Z M73.4436035,274.5800781 L73.4436035,264.1889648 L75.4875488,264.1889648 L75.4875488,274.5800781 Z M84.248291,274.5800781 L82.2043457,274.5800781 L82.2043457,273.5898438 L82.1726074,273.5898438 C81.6774902,274.3642578 80.9453964,274.7514648 79.9763184,274.7514648 C79.0834122,274.7514648 78.3735352,274.4362183 77.8466797,273.8056641 C77.3198242,273.1751099 77.0563965,272.3161011 77.0563965,271.2285156 C77.0563965,270.0774536 77.3515625,269.1496582 77.9418945,268.4450684 C78.5322266,267.7404785 79.3034592,267.3881836 80.2556152,267.3881836 C81.1696854,267.3881836 81.80867,267.7182617 82.1726074,268.378418 L82.2043457,268.378418 L82.2043457,264.1889648 L84.248291,264.1889648 Z M82.236084,270.6064453 C82.236084,270.1325073 82.0932617,269.7399902 81.8076172,269.4289551 C81.5219727,269.1179199 81.165451,268.9624023 80.7380371,268.9624023 C80.2386856,268.9624023 79.8461914,269.1602173 79.5605469,269.5559082 C79.2749023,269.9515991 79.1320801,270.4879456 79.1320801,271.1650391 C79.1320801,271.8082886 79.2696075,272.3044434 79.5446777,272.6535645 C79.8197479,273.0026855 80.1984863,273.1772461 80.6809082,273.1772461 C81.1337128,273.1772461 81.5061035,272.9931641 81.7980957,272.625 C82.0900879,272.2568359 82.236084,271.778656 82.236084,271.1904297 Z M93.692627,274.2246094 C92.9774551,274.5758667 92.0443573,274.7514648 90.8933105,274.7514648 C89.4121857,274.7514648 88.236824,274.308197 87.3671875,273.4216309 C86.497551,272.5350647 86.0627441,271.353363 86.0627441,269.8764648 C86.0627441,268.3233948 86.5483322,267.0528259 87.5195313,266.0646973 C88.4907303,265.0765686 89.7443771,264.5825195 91.2805176,264.5825195 C92.2411346,264.5825195 93.045166,264.7073364 93.692627,264.9570313 L93.692627,266.9819336 C93.0282364,266.5925903 92.2749863,266.3979492 91.4328613,266.3979492 C90.4722443,266.3979492 89.7041855,266.7047424 89.1286621,267.3183594 C88.5531387,267.9319763 88.2653809,268.7338867 88.2653809,269.7241211 C88.2653809,270.6889648 88.5383301,271.4654846 89.0842285,272.0537109 C89.630127,272.6419373 90.3685684,272.9360352 91.2995605,272.9360352 C92.1755371,272.9360352 92.9732208,272.7244263 93.692627,272.3012695 Z M95.0563965,271.1015625 C95.0563965,269.9462891 95.4023438,269.0385742 96.0942383,268.378418 C96.7861328,267.7182617 97.7160568,267.3881836 98.8840332,267.3881836 C100.013916,267.3881836 100.9110489,267.7129517 101.5754395,268.3625488 C102.23983,269.012146 102.5720215,269.8849182 102.5720215,270.980957 C102.5720215,272.132019 102.231369,273.0481567 101.5500488,273.7294922 C100.8687286,274.4108276 99.9462128,274.7514648 98.7824707,274.7514648 C97.6398926,274.7514648 96.7332382,274.4245605 96.0625,273.770752 C95.3917618,273.1169434 95.0563965,272.2272339 95.0563965,271.1015625 Z M97.1320801,271.0761719 C97.1320801,272.4768982 97.7033691,273.1772461 98.8459473,273.1772461 C99.9419861,273.1772461 100.4899902,272.4578552 100.4899902,271.019043 C100.4899902,269.6479492 99.9377441,268.9624023 98.833252,268.9624023 C98.2958145,268.9624023 97.8779297,269.1464844 97.5795898,269.5146484 C97.28125,269.8828125 97.1320801,270.4033203 97.1320801,271.0761719 Z M115.4885254,274.5800781 L113.4445801,274.5800781 L113.4445801,270.574707 C113.4445801,269.4998169 113.0531464,268.9624023 112.2702637,268.9624023 C111.9063263,268.9624023 111.6037598,269.1253052 111.3625488,269.4511719 C111.1213379,269.7770386 111.0007324,270.1748047 111.0007324,270.6445313 L111.0007324,274.5800781 L108.9567871,274.5800781 L108.9567871,270.5239258 C108.9567871,269.4829102 108.5695801,268.9624023 107.795166,268.9624023 C107.4100723,268.9624023 107.1022186,269.1179199 106.871582,269.4289551 C106.6409454,269.7399902 106.5256348,270.1515198 106.5256348,270.6635742 L106.5256348,274.5800781 L104.4753418,274.5800781 L104.4753418,267.5595703 L106.5256348,267.5595703 L106.5256348,268.6577148 L106.5510254,268.6577148 C106.7964706,268.2556763 107.1223145,267.9436035 107.5285645,267.7214355 C107.9348145,267.4992676 108.3622208,267.3881836 108.810791,267.3881836 C109.7967987,267.3881836 110.471756,267.8303833 110.8356934,268.7148438 C111.3773651,267.8303833 112.1644592,267.3881836 113.1970215,267.3881836 C114.7247009,267.3881836 115.4885254,268.3318481 115.4885254,270.2192383 Z M119.5256348,273.7358398 L119.5256348,277.8110352 L117.4753418,277.8110352 L117.4753418,267.5595703 L119.5256348,267.5595703 L119.5256348,268.6323242 L119.5510254,268.6323242 C120.0884628,267.802887 120.848053,267.3881836 121.829834,267.3881836 C122.7227478,267.3881836 123.4209747,267.7002563 123.9245605,268.3244629 C124.4281464,268.9486694 124.6799316,269.7981567 124.6799316,270.8730469 C124.6799316,272.0452576 124.3879395,272.9846802 123.8039551,273.6914063 C123.2199707,274.3981323 122.4540253,274.7514648 121.5061035,274.7514648 C120.647049,274.7514648 119.9953613,274.4129333 119.5510254,273.7358398 Z M119.4938965,271.4760742 C119.4938965,271.9754028 119.6293106,272.3837891 119.9001465,272.7011719 C120.1709824,273.0185547 120.5222168,273.1772461 120.9538574,273.1772461 C121.4659042,273.1772461 121.8647461,272.9783325 122.1503906,272.5805664 C122.4360352,272.1828003 122.5788574,271.6199646 122.5788574,270.8920898 C122.5788574,269.6056213 122.0773926,268.9624023 121.0744629,268.9624023 C120.608963,268.9624023 120.2291718,269.1401367 119.9350586,269.4956055 C119.6409454,269.8510742 119.4938965,270.3081055 119.4938965,270.8666992 Z M126.0563965,271.1015625 C126.0563965,269.9462891 126.4023438,269.0385742 127.0942383,268.378418 C127.7861328,267.7182617 128.7160645,267.3881836 129.8840332,267.3881836 C131.013916,267.3881836 131.9110413,267.7129517 132.5754395,268.3625488 C133.2398376,269.012146 133.5720215,269.8849182 133.5720215,270.980957 C133.5720215,272.132019 133.231369,273.0481567 132.5500488,273.7294922 C131.8687286,274.4108276 130.9462128,274.7514648 129.7824707,274.7514648 C128.6398926,274.7514648 127.7332382,274.4245605 127.0625,273.770752 C126.3917618,273.1169434 126.0563965,272.2272339 126.0563965,271.1015625 Z M128.1320801,271.0761719 C128.1320801,272.4768982 128.7033691,273.1772461 129.8459473,273.1772461 C130.9419861,273.1772461 131.4899902,272.4578552 131.4899902,271.019043 C131.4899902,269.6479492 130.9377441,268.9624023 129.833252,268.9624023 C129.2958069,268.9624023 128.8779297,269.1464844 128.5795898,269.5146484 C128.28125,269.8828125 128.1320801,270.4033203 128.1320801,271.0761719 Z M142.1467285,274.5800781 L140.1091309,274.5800781 L140.1091309,270.6635742 C140.1091309,269.5294495 139.7007751,268.9624023 138.8840332,268.9624023 C138.4947052,268.9624023 138.1709747,269.1137085 137.9128418,269.4162598 C137.6547089,269.718811 137.5256348,270.1049805 137.5256348,270.574707 L137.5256348,274.5800781 L135.4753418,274.5800781 L135.4753418,267.5595703 L137.5256348,267.5595703 L137.5256348,268.6767578 L137.5510254,268.6767578 C138.0630798,267.817688 138.8163147,267.3881836 139.810791,267.3881836 C141.3680878,267.3881836 142.1467285,268.3530273 142.1467285,270.2827148 Z M149.7087402,271.6474609 L145.0876465,271.6474609 C145.1595917,272.7350464 145.815506,273.2788086 147.0554199,273.2788086 C147.829834,273.2788086 148.5132599,273.0883789 149.1057129,272.7075195 L149.1057129,274.2119141 C148.4667053,274.5715942 147.62883,274.7514648 146.592041,274.7514648 C145.4748535,274.7514648 144.6062927,274.4362183 143.9863281,273.8056641 C143.3663635,273.1751099 143.0563965,272.2970581 143.0563965,271.1713867 C143.0563965,270.0499573 143.3864746,269.1390991 144.0466309,268.4387207 C144.7067871,267.7383423 145.5362091,267.3881836 146.5349121,267.3881836 C147.5293884,267.3881836 148.3069611,267.6896973 148.8676758,268.2927246 C149.4283905,268.895752 149.7087402,269.7241211 149.7087402,270.777832 Z M147.7980957,270.3652344 C147.7980957,269.3157349 147.3728027,268.7910156 146.5222168,268.7910156 C146.1709747,268.7910156 145.8599396,268.9348755 145.5891113,269.2226563 C145.3182831,269.510437 145.1490021,269.8912964 145.0812988,270.3652344 Z M158.1467285,274.5800781 L156.1091309,274.5800781 L156.1091309,270.6635742 C156.1091309,269.5294495 155.7007751,268.9624023 154.8840332,268.9624023 C154.4947052,268.9624023 154.1709747,269.1137085 153.9128418,269.4162598 C153.6547089,269.718811 153.5256348,270.1049805 153.5256348,270.574707 L153.5256348,274.5800781 L151.4753418,274.5800781 L151.4753418,267.5595703 L153.5256348,267.5595703 L153.5256348,268.6767578 L153.5510254,268.6767578 C154.0630798,267.817688 154.8163147,267.3881836 155.810791,267.3881836 C157.3680878,267.3881836 158.1467285,268.3530273 158.1467285,270.2827148 Z M163.607666,274.4975586 C163.2987518,274.6668091 162.8311462,274.7514648 162.204834,274.7514648 C160.7152405,274.7514648 159.970459,273.9685974 159.970459,272.402832 L159.970459,269.0893555 L158.8151855,269.0893555 L158.8151855,267.5595703 L159.970459,267.5595703 L159.970459,266.0170898 L162.0080566,265.4331055 L162.0080566,267.5595703 L163.607666,267.5595703 L163.607666,269.0893555 L162.0080566,269.0893555 L162.0080566,272.0473633 C162.0080566,272.7963867 162.3042755,273.1708984 162.8967285,273.1708984 C163.1252441,273.1708984 163.3622284,273.1032104 163.607666,272.9677734 Z M172.6130371,270.3525391 C172.6130371,273.2851563 171.2504272,274.7514648 168.5251465,274.7514648 C165.8929749,274.7514648 164.5769043,273.3232422 164.5769043,270.4667969 L164.5769043,264.7475586 L166.6779785,264.7475586 L166.6779785,270.4794922 C166.6779785,272.1171875 167.3233185,272.9360352 168.6140137,272.9360352 C169.8835449,272.9360352 170.5183105,272.1468201 170.5183105,270.5683594 L170.5183105,264.7475586 L172.6130371,264.7475586 Z M176.5256348,273.7358398 L176.5256348,277.8110352 L174.4753418,277.8110352 L174.4753418,267.5595703 L176.5256348,267.5595703 L176.5256348,268.6323242 L176.5510254,268.6323242 C177.0884705,267.802887 177.848053,267.3881836 178.829834,267.3881836 C179.7227478,267.3881836 180.4209747,267.7002563 180.9245605,268.3244629 C181.4281464,268.9486694 181.6799316,269.7981567 181.6799316,270.8730469 C181.6799316,272.0452576 181.3879395,272.9846802 180.8039551,273.6914063 C180.2199707,274.3981323 179.4540253,274.7514648 178.5061035,274.7514648 C177.647049,274.7514648 176.9953613,274.4129333 176.5510254,273.7358398 Z M176.4938965,271.4760742 C176.4938965,271.9754028 176.6293182,272.3837891 176.9001465,272.7011719 C177.1709747,273.0185547 177.5222168,273.1772461 177.9538574,273.1772461 C178.4659119,273.1772461 178.8647461,272.9783325 179.1503906,272.5805664 C179.4360352,272.1828003 179.5788574,271.6199646 179.5788574,270.8920898 C179.5788574,269.6056213 179.0773926,268.9624023 178.0744629,268.9624023 C177.608963,268.9624023 177.2291718,269.1401367 176.9350586,269.4956055 C176.6409454,269.8510742 176.4938965,270.3081055 176.4938965,270.8666992 Z M190.248291,274.5800781 L188.2043457,274.5800781 L188.2043457,273.5898438 L188.1726074,273.5898438 C187.6774902,274.3642578 186.9454041,274.7514648 185.9763184,274.7514648 C185.0834045,274.7514648 184.3735352,274.4362183 183.8466797,273.8056641 C183.3198242,273.1751099 183.0563965,272.3161011 183.0563965,271.2285156 C183.0563965,270.0774536 183.3515625,269.1496582 183.9418945,268.4450684 C184.5322266,267.7404785 185.3034668,267.3881836 186.2556152,267.3881836 C187.1696777,267.3881836 187.80867,267.7182617 188.1726074,268.378418 L188.2043457,268.378418 L188.2043457,264.1889648 L190.248291,264.1889648 Z M188.236084,270.6064453 C188.236084,270.1325073 188.0932617,269.7399902 187.8076172,269.4289551 C187.5219727,269.1179199 187.165451,268.9624023 186.7380371,268.9624023 C186.238678,268.9624023 185.8461914,269.1602173 185.5605469,269.5559082 C185.2749023,269.9515991 185.1320801,270.4879456 185.1320801,271.1650391 C185.1320801,271.8082886 185.2696075,272.3044434 185.5446777,272.6535645 C185.8197479,273.0026855 186.1984863,273.1772461 186.6809082,273.1772461 C187.1337128,273.1772461 187.5061035,272.9931641 187.7980957,272.625 C188.0900879,272.2568359 188.236084,271.778656 188.236084,271.1904297 Z M192.6467285,267.9848633 C192.9641113,267.8071289 193.3883362,267.663269 193.9194336,267.5532227 C194.450531,267.4431763 194.9043732,267.3881836 195.2810059,267.3881836 C197.2445526,267.3881836 198.2263184,268.3720703 198.2263184,270.3398438 L198.2263184,274.5800781 L196.2775879,274.5800781 L196.2775879,273.5581055 L196.2521973,273.5581055 C195.7740021,274.3536987 195.0736542,274.7514648 194.151123,274.7514648 C193.4867249,274.7514648 192.9545898,274.5620728 192.5546875,274.1833496 C192.1547852,273.8046265 191.954834,273.2893982 191.954834,272.6376953 C191.954834,271.2919922 192.7567444,270.5090942 194.3605957,270.2890625 L196.2902832,270.0288086 C196.2902832,269.2120667 195.8649902,268.8037109 195.0144043,268.8037109 C194.1765137,268.8037109 193.3872986,269.0576172 192.6467285,269.5654297 Z M194.963623,271.3999023 C194.223053,271.4972534 193.8527832,271.831543 193.8527832,272.402832 C193.8527832,272.6652222 193.9427032,272.87677 194.1225586,273.0375977 C194.3024139,273.1984253 194.5446777,273.2788086 194.8493652,273.2788086 C195.2683105,273.2788086 195.6131897,273.1306763 195.8840332,272.8344727 C196.1548767,272.538269 196.2902832,272.170105 196.2902832,271.7299805 L196.2902832,271.2285156 Z M204.607666,274.4975586 C204.2987366,274.6668091 203.8311462,274.7514648 203.204834,274.7514648 C201.7152405,274.7514648 200.970459,273.9685974 200.970459,272.402832 L200.970459,269.0893555 L199.8151855,269.0893555 L199.8151855,267.5595703 L200.970459,267.5595703 L200.970459,266.0170898 L203.0080566,265.4331055 L203.0080566,267.5595703 L204.607666,267.5595703 L204.607666,269.0893555 L203.0080566,269.0893555 L203.0080566,272.0473633 C203.0080566,272.7963867 203.3042755,273.1708984 203.8967285,273.1708984 C204.1252441,273.1708984 204.3622131,273.1032104 204.607666,272.9677734 Z M211.7087402,271.6474609 L207.0876465,271.6474609 C207.1595917,272.7350464 207.815506,273.2788086 209.0554199,273.2788086 C209.829834,273.2788086 210.5132599,273.0883789 211.1057129,272.7075195 L211.1057129,274.2119141 C210.4667053,274.5715942 209.62883,274.7514648 208.592041,274.7514648 C207.4748535,274.7514648 206.6062927,274.4362183 205.9863281,273.8056641 C205.3663635,273.1751099 205.0563965,272.2970581 205.0563965,271.1713867 C205.0563965,270.0499573 205.3864746,269.1390991 206.0466309,268.4387207 C206.7067871,267.7383423 207.5362091,267.3881836 208.5349121,267.3881836 C209.5293884,267.3881836 210.3069611,267.6896973 210.8676758,268.2927246 C211.4283905,268.895752 211.7087402,269.7241211 211.7087402,270.777832 Z M209.7980957,270.3652344 C209.7980957,269.3157349 209.3728027,268.7910156 208.5222168,268.7910156 C208.1709747,268.7910156 207.8599548,268.9348755 207.5891113,269.2226563 C207.3182678,269.510437 207.1490021,269.8912964 207.0812988,270.3652344 Z M212.1086426,274.5800781" style="fill:rgb(255,255,255);stroke:none" clip-path="url(#clip9)" />
<clipPath id="clip10"><path d="M289,14 L530,14 L530,27 L289,27 L289,14 Z" /></clipPath>
<path d="M293,41.8338776 C309,41 409,18 526.3513184,57" style="fill:none;stroke:rgb(119,147,60);stroke-width:3;stroke-dasharray:18,9;stroke-dashoffset:0" clip-path="url(#clip10)" />
<clipPath id="clip11"><path d="M289,42 L530,42 L530,63 L289,63 L289,42 Z" /></clipPath>
<path d="M293,41.8338776 C309,41 409,18 526.3513184,57" style="fill:none;stroke:rgb(119,147,60);stroke-width:3;stroke-dasharray:18,9;stroke-dashoffset:0" clip-path="url(#clip11)" />
<clipPath id="clip12"><path d="M289,25 L350,25 L350,44 L289,44 L289,25 Z" /></clipPath>
<path d="M293,41.8338776 C309,41 409,18 526.3513184,57" style="fill:none;stroke:rgb(119,147,60);stroke-width:3;stroke-dasharray:18,9;stroke-dashoffset:0" clip-path="url(#clip12)" />
<clipPath id="clip13"><path d="M392,25 L530,25 L530,44 L392,44 L392,25 Z" /></clipPath>
<path d="M293,41.8338776 C309,41 409,18 526.3513184,57" style="fill:none;stroke:rgb(119,147,60);stroke-width:3;stroke-dasharray:18,9;stroke-dashoffset:0" clip-path="url(#clip13)" />
<clipPath id="clip14"><path d="M348,25 L394,25 L394,44 L348,44 L348,25 Z" /></clipPath>
<path d="M293,41.8338776 C309,41 409,18 526.3513184,57" style="fill:none;stroke:rgb(119,147,60);opacity:0.09803921568627451;stroke-width:3;stroke-dasharray:18,9;stroke-dashoffset:0" clip-path="url(#clip14)" />
<clipPath id="clip15"><path d="M289,14 L530,14 L530,63 L289,63 L289,14 Z" /></clipPath>
<path d="M516.5561523,59.0136032 L526.3513184,57 L519.7099609,49.5239334 Z M516.5561523,59.0136032" style="fill:rgb(119,147,60);stroke:none" clip-path="url(#clip15)" />
<clipPath id="clip16"><path d="M289,14 L530,14 L530,63 L289,63 L289,14 Z" /></clipPath>
<path d="M516.5561523,59.0136032 L526.3513184,57 L519.7099609,49.5239334 Z M516.5561523,59.0136032" style="fill:none;stroke:rgb(119,147,60);stroke-width:3" clip-path="url(#clip16)" />
<clipPath id="clip17"><path d="M348,25 L394,25 L394,44 L348,44 L348,25 Z" /></clipPath>
<path d="M351.5317383,36.5019531 C352.072113,36.8307304 352.6010742,36.9951172 353.1186523,36.9951172 C353.7697144,36.9951172 354.0952148,36.8209648 354.0952148,36.4726563 C354.0952148,36.2252579 353.8266602,36.0185547 353.2895508,35.8525391 C352.6189575,35.6442032 352.1583862,35.4122734 351.9077148,35.1567383 C351.6570435,34.9012032 351.5317383,34.5553398 351.5317383,34.1191406 C351.5317383,33.5885391 351.746582,33.1726913 352.1762695,32.871582 C352.605957,32.5704727 353.1690979,32.4199219 353.8657227,32.4199219 C354.3605347,32.4199219 354.8374023,32.4931641 355.2963867,32.6396484 L355.2963867,33.8798828 C354.8764648,33.6324844 354.4142456,33.5087891 353.909668,33.5087891 C353.6589966,33.5087891 353.4572144,33.5535469 353.3041992,33.6430664 C353.1511841,33.7325859 353.074707,33.8505859 353.074707,33.9970703 C353.074707,34.2444687 353.3025513,34.4446602 353.7583008,34.5976563 C354.246582,34.7604179 354.6135864,34.9085274 354.859375,35.0419922 C355.1051636,35.175457 355.2922974,35.3512344 355.4208984,35.5693359 C355.5494995,35.7874374 355.6137695,36.039711 355.6137695,36.3261719 C355.6137695,36.8828163 355.3908081,37.3149414 354.9448242,37.6225586 C354.4988403,37.9301758 353.9031677,38.0839844 353.1577148,38.0839844 C352.5717773,38.0839844 352.0297852,37.9912109 351.5317383,37.8056641 Z M361.4682617,35.6962891 L357.9135742,35.6962891 C357.9689331,36.5328827 358.4734497,36.9511719 359.4272461,36.9511719 C360.0229492,36.9511719 360.548645,36.8046875 361.0043945,36.5117188 L361.0043945,37.6689453 C360.5128784,37.9456406 359.8683472,38.0839844 359.0708008,38.0839844 C358.2114258,38.0839844 357.5432739,37.8414726 357.0664063,37.3564453 C356.5895386,36.871418 356.3510742,36.1959686 356.3510742,35.3300781 C356.3510742,34.4674454 356.6049805,33.7667656 357.112793,33.2280273 C357.6206055,32.6892853 358.258606,32.4199219 359.0268555,32.4199219 C359.7918396,32.4199219 360.3899536,32.6518555 360.8212891,33.1157227 C361.2526245,33.5795898 361.4682617,34.2167931 361.4682617,35.0273438 Z M359.9985352,34.7099609 C359.9985352,33.9026642 359.6713867,33.4990234 359.0170898,33.4990234 C358.7468872,33.4990234 358.5076294,33.6096992 358.2993164,33.8310547 C358.0910034,34.0524101 357.9607544,34.3453751 357.9086914,34.7099609 Z M365.8520508,37.8886719 C365.6144409,38.0188828 365.2546997,38.0839844 364.7729492,38.0839844 C363.6271057,38.0839844 363.0541992,37.4817772 363.0541992,36.2773438 L363.0541992,33.7285156 L362.1655273,33.7285156 L362.1655273,32.5517578 L363.0541992,32.5517578 L363.0541992,31.3652344 L364.621582,30.9160156 L364.621582,32.5517578 L365.8520508,32.5517578 L365.8520508,33.7285156 L364.621582,33.7285156 L364.621582,36.0039063 C364.621582,36.5800819 364.8494263,36.8681641 365.3051758,36.8681641 C365.480957,36.8681641 365.663269,36.816082 365.8520508,36.7119141 Z M366.5317383,36.5019531 C367.072113,36.8307304 367.6010742,36.9951172 368.1186523,36.9951172 C368.7697144,36.9951172 369.0952148,36.8209648 369.0952148,36.4726563 C369.0952148,36.2252579 368.8266602,36.0185547 368.2895508,35.8525391 C367.6189575,35.6442032 367.1583862,35.4122734 366.9077148,35.1567383 C366.6570435,34.9012032 366.5317383,34.5553398 366.5317383,34.1191406 C366.5317383,33.5885391 366.746582,33.1726913 367.1762695,32.871582 C367.605957,32.5704727 368.1690979,32.4199219 368.8657227,32.4199219 C369.3605347,32.4199219 369.8374023,32.4931641 370.2963867,32.6396484 L370.2963867,33.8798828 C369.8764648,33.6324844 369.4142456,33.5087891 368.909668,33.5087891 C368.6589966,33.5087891 368.4572144,33.5535469 368.3041992,33.6430664 C368.1511841,33.7325859 368.074707,33.8505859 368.074707,33.9970703 C368.074707,34.2444687 368.3025513,34.4446602 368.7583008,34.5976563 C369.246582,34.7604179 369.6135864,34.9085274 369.859375,35.0419922 C370.1051636,35.175457 370.2922974,35.3512344 370.4208984,35.5693359 C370.5494995,35.7874374 370.6137695,36.039711 370.6137695,36.3261719 C370.6137695,36.8828163 370.3908081,37.3149414 369.9448242,37.6225586 C369.4988403,37.9301758 368.9031677,38.0839844 368.1577148,38.0839844 C367.5717773,38.0839844 367.0297852,37.9912109 366.5317383,37.8056641 Z M374.8520508,37.8886719 C374.6144409,38.0188828 374.2546997,38.0839844 373.7729492,38.0839844 C372.6271057,38.0839844 372.0541992,37.4817772 372.0541992,36.2773438 L372.0541992,33.7285156 L371.1655273,33.7285156 L371.1655273,32.5517578 L372.0541992,32.5517578 L372.0541992,31.3652344 L373.621582,30.9160156 L373.621582,32.5517578 L374.8520508,32.5517578 L374.8520508,33.7285156 L373.621582,33.7285156 L373.621582,36.0039063 C373.621582,36.5800819 373.8494263,36.8681641 374.3051758,36.8681641 C374.480957,36.8681641 374.663269,36.816082 374.8520508,36.7119141 Z M375.8051758,32.8789063 C376.0493164,32.7421875 376.3756714,32.6315117 376.7841797,32.546875 C377.192688,32.4622383 377.5418091,32.4199219 377.831543,32.4199219 C379.34198,32.4199219 380.097168,33.1767502 380.097168,34.6904297 L380.097168,37.9521484 L378.5981445,37.9521484 L378.5981445,37.1660156 L378.5786133,37.1660156 C378.2107544,37.7779999 377.6720581,38.0839844 376.9624023,38.0839844 C376.4513245,38.0839844 376.0419922,37.9383163 375.734375,37.6469727 C375.4267578,37.355629 375.2729492,36.9593124 375.2729492,36.4580078 C375.2729492,35.4228477 375.889801,34.8206406 377.1235352,34.6513672 L378.6079102,34.4511719 C378.6079102,33.8229141 378.2807617,33.5087891 377.6264648,33.5087891 C376.9819336,33.5087891 376.3748474,33.7041016 375.8051758,34.0947266 Z M377.5874023,35.5058594 C377.0177307,35.5807304 376.7329102,35.8378906 376.7329102,36.2773438 C376.7329102,36.4791679 376.802063,36.6419258 376.9404297,36.765625 C377.0787964,36.8893242 377.2651367,36.9511719 377.4995117,36.9511719 C377.8217773,36.9511719 378.0870972,36.8372421 378.2954102,36.609375 C378.5037231,36.3815079 378.6079102,36.0983086 378.6079102,35.7597656 L378.6079102,35.3740234 Z M384.8520508,37.8886719 C384.6144409,38.0188828 384.2546997,38.0839844 383.7729492,38.0839844 C382.6271057,38.0839844 382.0541992,37.4817772 382.0541992,36.2773438 L382.0541992,33.7285156 L381.1655273,33.7285156 L381.1655273,32.5517578 L382.0541992,32.5517578 L382.0541992,31.3652344 L383.621582,30.9160156 L383.621582,32.5517578 L384.8520508,32.5517578 L384.8520508,33.7285156 L383.621582,33.7285156 L383.621582,36.0039063 C383.621582,36.5800819 383.8494263,36.8681641 384.3051758,36.8681641 C384.480957,36.8681641 384.663269,36.816082 384.8520508,36.7119141 Z M390.4682617,35.6962891 L386.9135742,35.6962891 C386.9689331,36.5328827 387.4734497,36.9511719 388.4272461,36.9511719 C389.0229492,36.9511719 389.548645,36.8046875 390.0043945,36.5117188 L390.0043945,37.6689453 C389.5128784,37.9456406 388.8683472,38.0839844 388.0708008,38.0839844 C387.2114258,38.0839844 386.5432739,37.8414726 386.0664063,37.3564453 C385.5895386,36.871418 385.3510742,36.1959686 385.3510742,35.3300781 C385.3510742,34.4674454 385.6049805,33.7667656 386.112793,33.2280273 C386.6206055,32.6892853 387.258606,32.4199219 388.0268555,32.4199219 C388.7918396,32.4199219 389.3899536,32.6518555 389.8212891,33.1157227 C390.2526245,33.5795898 390.4682617,34.2167931 390.4682617,35.0273438 Z M388.9985352,34.7099609 C388.9985352,33.9026642 388.6713867,33.4990234 388.0170898,33.4990234 C387.7468872,33.4990234 387.5076294,33.6096992 387.2993164,33.8310547 C387.0910034,34.0524101 386.9607544,34.3453751 386.9086914,34.7099609 Z M390.7758789,37.9521484" style="fill:rgb(89,89,89);stroke:none" clip-path="url(#clip17)" />
<clipPath id="clip18"><path d="M547,86 L593,86 L593,251 L547,251 L547,86 Z" /></clipPath>
<path d="M570.3877563,90 C551,147 589,189 569.5369263,247" style="fill:none;stroke:rgb(119,147,60);stroke-width:3;stroke-dasharray:18,9;stroke-dashoffset:0" clip-path="url(#clip18)" />
<clipPath id="clip19"><path d="M547,86 L593,86 L593,251 L547,251 L547,86 Z" /></clipPath>
<path d="M567.5518188,237.1990051 L569.5369263,247 L577.0322876,240.3803711 Z M567.5518188,237.1990051" style="fill:rgb(119,147,60);stroke:none" clip-path="url(#clip19)" />
<clipPath id="clip20"><path d="M547,86 L593,86 L593,251 L547,251 L547,86 Z" /></clipPath>
<path d="M567.5518188,237.1990051 L569.5369263,247 L577.0322876,240.3803711 Z M567.5518188,237.1990051" style="fill:none;stroke:rgb(119,147,60);stroke-width:3" clip-path="url(#clip20)" />
<clipPath id="clip21"><path d="M190,262 L491,262 L491,323 L190,323 L190,262 Z" /></clipPath>
<path d="M488,266.2292786 C383,270 324,319 194.0206146,287" style="fill:none;stroke:rgb(119,147,60);stroke-width:3;stroke-dasharray:18,9;stroke-dashoffset:0" clip-path="url(#clip21)" />
<clipPath id="clip22"><path d="M190,262 L491,262 L491,323 L190,323 L190,262 Z" /></clipPath>
<path d="M203.625061,284.2152405 L194.0206146,287 L201.2344971,293.925293 Z M203.625061,284.2152405" style="fill:rgb(119,147,60);stroke:none" clip-path="url(#clip22)" />
<clipPath id="clip23"><path d="M190,262 L491,262 L491,323 L190,323 L190,262 Z" /></clipPath>
<path d="M203.625061,284.2152405 L194.0206146,287 L201.2344971,293.925293 Z M203.625061,284.2152405" style="fill:none;stroke:rgb(119,147,60);stroke-width:3" clip-path="url(#clip23)" />
<clipPath id="clip24"><path d="M113,75 L164,75 L164,158 L113,158 L113,75 Z" /></clipPath>
<path d="M133.7639771,254 C160,190 117,141 142.9456482,79" style="fill:none;stroke:rgb(119,147,60);stroke-width:3;stroke-dasharray:18,9;stroke-dashoffset:0" clip-path="url(#clip24)" />
<clipPath id="clip25"><path d="M113,173 L164,173 L164,258 L113,258 L113,173 Z" /></clipPath>
<path d="M133.7639771,254 C160,190 117,141 142.9456482,79" style="fill:none;stroke:rgb(119,147,60);stroke-width:3;stroke-dasharray:18,9;stroke-dashoffset:0" clip-path="url(#clip25)" />
<clipPath id="clip26"><path d="M113,156 L128,156 L128,175 L113,175 L113,156 Z" /></clipPath>
<path d="M133.7639771,254 C160,190 117,141 142.9456482,79" style="fill:none;stroke:rgb(119,147,60);stroke-width:3;stroke-dasharray:18,9;stroke-dashoffset:0" clip-path="url(#clip26)" />
<clipPath id="clip27"><path d="M150,156 L164,156 L164,175 L150,175 L150,156 Z" /></clipPath>
<path d="M133.7639771,254 C160,190 117,141 142.9456482,79" style="fill:none;stroke:rgb(119,147,60);stroke-width:3;stroke-dasharray:18,9;stroke-dashoffset:0" clip-path="url(#clip27)" />
<clipPath id="clip28"><path d="M126,156 L152,156 L152,175 L126,175 L126,156 Z" /></clipPath>
<path d="M133.7639771,254 C160,190 117,141 142.9456482,79" style="fill:none;stroke:rgb(119,147,60);opacity:0.09803921568627451;stroke-width:3;stroke-dasharray:18,9;stroke-dashoffset:0" clip-path="url(#clip28)" />
<clipPath id="clip29"><path d="M113,75 L164,75 L164,258 L113,258 L113,75 Z" /></clipPath>
<path d="M144.2148743,88.9191284 L142.9456482,79 L134.9900513,85.0587387 Z M144.2148743,88.9191284" style="fill:rgb(119,147,60);stroke:none" clip-path="url(#clip29)" />
<clipPath id="clip30"><path d="M113,75 L164,75 L164,258 L113,258 L113,75 Z" /></clipPath>
<path d="M144.2148743,88.9191284 L142.9456482,79 L134.9900513,85.0587387 Z M144.2148743,88.9191284" style="fill:none;stroke:rgb(119,147,60);stroke-width:3" clip-path="url(#clip30)" />
<clipPath id="clip31"><path d="M126,156 L152,156 L152,175 L126,175 L126,156 Z" /></clipPath>
<path d="M131.2607422,163.4541016 L132.2177734,164.0888672 L132.2177734,161.2861328 C134.5159607,161.2210388 136.5602112,161.0908203 138.3505859,160.8955078 L138.7021484,161.9306641 C138.0641174,162.0022888 137.4261169,162.0641174 136.7880859,162.1162109 L136.7880859,162.8876953 L138.7802734,162.8876953 L138.7802734,163.8837891 L136.7880859,163.8837891 L136.7880859,164.5380859 L138.5654297,164.5380859 L138.5654297,170.2998047 L137.4130859,170.2998047 L137.4130859,169.9580078 L135.0302734,169.9580078 L135.0302734,170.2998047 L133.8779297,170.2998047 L133.8779297,164.5380859 L135.5673828,164.5380859 L135.5673828,163.8837891 L133.3701172,163.8837891 L133.3701172,165.8076172 C133.3831329,167.6891479 133.0185547,169.1962891 132.2763672,170.3291016 C131.9964142,169.9710236 131.7099609,169.6422577 131.4169922,169.3427734 L131.4169922,170.2705078 L130.2548828,170.2705078 L130.2548828,166.8330078 C130.0400391,167.0543518 129.8219452,167.2659607 129.6005859,167.4677734 C129.4833984,167.1031799 129.3271484,166.6669922 129.1318359,166.1591797 C129.8414764,165.5276642 130.5511017,164.6259766 131.2607422,163.4541016 Z M131.1435547,160.6708984 L132.1689453,161.3349609 C131.4853516,162.4547577 130.7008514,163.4085236 129.8154297,164.1962891 C129.6071014,163.8382111 129.3759766,163.4606171 129.1220703,163.0634766 C129.9163513,162.4384766 130.5901642,161.6409607 131.1435547,160.6708984 Z M131.4169922,165.4365234 L131.4169922,169.2646484 C131.9638672,168.3922424 132.2307892,167.1324921 132.2177734,165.4853516 L132.2177734,164.2353516 C131.9638672,164.6520233 131.6969452,165.0523987 131.4169922,165.4365234 Z M135.0302734,169.0009766 L137.4130859,169.0009766 L137.4130859,168.4248047 L135.0302734,168.4248047 Z M135.0302734,167.5263672 L137.4130859,167.5263672 L137.4130859,166.9599609 L135.0302734,166.9599609 Z M137.4130859,165.4951172 L135.0302734,165.4951172 L135.0302734,166.0615234 L137.4130859,166.0615234 Z M133.3701172,162.3017578 L133.3701172,162.8876953 L135.5673828,162.8876953 L135.5673828,162.1943359 C134.8316956,162.2398987 134.0992889,162.2757263 133.3701172,162.3017578 Z M147.1005859,164.4208984 C147.7906952,165.5862732 148.3831329,166.6474609 148.8779297,167.6044922 L147.6962891,168.2392578 C147.2145081,167.2724609 146.6969452,166.2617188 146.1435547,165.2070313 L146.1435547,170.2802734 L144.8251953,170.2802734 L144.8251953,165.8320313 C144.3727112,166.6783905 143.8486328,167.4742737 143.2529297,168.2197266 C143.0706329,168.0569763 142.9029999,167.9104919 142.75,167.7802734 C142.717453,168.0537109 142.6930389,168.4475861 142.6767578,168.9619141 L139.3076172,169.4892578 L139.1611328,168.1611328 L140.3818359,168.0195313 L140.3818359,165.8466797 L139.3662109,165.8466797 L139.3662109,164.5478516 L140.3818359,164.5478516 L140.3818359,162.6240234 L139.3076172,162.6240234 L139.3076172,161.3251953 L142.7451172,161.3251953 L142.7451172,162.6240234 L141.6806641,162.6240234 L141.6806641,164.5478516 L142.7158203,164.5478516 L142.7158203,165.8466797 L141.6806641,165.8466797 L141.6806641,167.8388672 L142.6376953,167.6875 C142.4586639,167.5345154 142.2991486,167.4059143 142.1591797,167.3017578 C143.4026794,165.8369141 144.2750549,164.2679138 144.7763672,162.5947266 L143.1064453,162.5947266 L143.1064453,161.2958984 L148.5263672,161.2958984 L148.5263672,162.5947266 L146.1533203,162.5947266 C145.9905548,163.1416016 145.8050079,163.6721954 145.5966797,164.1865234 L146.1435547,164.1865234 L146.1435547,164.9287109 Z M149.0341797,168.9765625" style="fill:rgb(89,89,89);stroke:none" clip-path="url(#clip31)" />
<clipPath id="clip32"><path d="M183,75 L512,75 L512,170 L183,170 L183,75 Z" /></clipPath>
<path d="M508.3714294,247 C269,176 308,190 187.9468079,79" style="fill:none;stroke:rgb(119,147,60);stroke-width:3;stroke-dasharray:18,9;stroke-dashoffset:0" clip-path="url(#clip32)" />
<clipPath id="clip33"><path d="M183,185 L512,185 L512,251 L183,251 L183,185 Z" /></clipPath>
<path d="M508.3714294,247 C269,176 308,190 187.9468079,79" style="fill:none;stroke:rgb(119,147,60);stroke-width:3;stroke-dasharray:18,9;stroke-dashoffset:0" clip-path="url(#clip33)" />
<clipPath id="clip34"><path d="M183,168 L292,168 L292,187 L183,187 L183,168 Z" /></clipPath>
<path d="M508.3714294,247 C269,176 308,190 187.9468079,79" style="fill:none;stroke:rgb(119,147,60);stroke-width:3;stroke-dasharray:18,9;stroke-dashoffset:0" clip-path="url(#clip34)" />
<clipPath id="clip35"><path d="M314,168 L512,168 L512,187 L314,187 L314,168 Z" /></clipPath>
<path d="M508.3714294,247 C269,176 308,190 187.9468079,79" style="fill:none;stroke:rgb(119,147,60);stroke-width:3;stroke-dasharray:18,9;stroke-dashoffset:0" clip-path="url(#clip35)" />
<clipPath id="clip36"><path d="M290,168 L316,168 L316,187 L290,187 L290,168 Z" /></clipPath>
<path d="M508.3714294,247 C269,176 308,190 187.9468079,79" style="fill:none;stroke:rgb(119,147,60);opacity:0.09803921568627451;stroke-width:3;stroke-dasharray:18,9;stroke-dashoffset:0" clip-path="url(#clip36)" />
<clipPath id="clip37"><path d="M183,75 L512,75 L512,251 L183,251 L183,75 Z" /></clipPath>
<path d="M197.6999969,81.2080231 L187.9468079,79 L190.9111938,88.5505219 Z M197.6999969,81.2080231" style="fill:rgb(119,147,60);stroke:none" clip-path="url(#clip37)" />
<clipPath id="clip38"><path d="M183,75 L512,75 L512,251 L183,251 L183,75 Z" /></clipPath>
<path d="M197.6999969,81.2080231 L187.9468079,79 L190.9111938,88.5505219 Z M197.6999969,81.2080231" style="fill:none;stroke:rgb(119,147,60);stroke-width:3" clip-path="url(#clip38)" />
<clipPath id="clip39"><path d="M290,168 L316,168 L316,187 L290,187 L290,168 Z" /></clipPath>
<path d="M295.2607422,175.4541016 L296.2177734,176.0888672 L296.2177734,173.2861328 C298.5159607,173.2210388 300.5602112,173.0908203 302.3505859,172.8955078 L302.7021484,173.9306641 C302.0641174,174.0022888 301.4261169,174.0641174 300.7880859,174.1162109 L300.7880859,174.8876953 L302.7802734,174.8876953 L302.7802734,175.8837891 L300.7880859,175.8837891 L300.7880859,176.5380859 L302.5654297,176.5380859 L302.5654297,182.2998047 L301.4130859,182.2998047 L301.4130859,181.9580078 L299.0302734,181.9580078 L299.0302734,182.2998047 L297.8779297,182.2998047 L297.8779297,176.5380859 L299.5673828,176.5380859 L299.5673828,175.8837891 L297.3701172,175.8837891 L297.3701172,177.8076172 C297.3831177,179.6891327 297.0185547,181.1962891 296.2763672,182.3291016 C295.9963989,181.9710236 295.7099609,181.6422577 295.4169922,181.3427734 L295.4169922,182.2705078 L294.2548828,182.2705078 L294.2548828,178.8330078 C294.0400391,179.0543671 293.8219604,179.2659454 293.6005859,179.4677734 C293.4833984,179.1031952 293.3271484,178.6669922 293.1318359,178.1591797 C293.8414917,177.5276642 294.5510864,176.6259766 295.2607422,175.4541016 Z M295.1435547,172.6708984 L296.1689453,173.3349609 C295.4853516,174.4547577 294.7008667,175.4085236 293.8154297,176.1962891 C293.6071167,175.8382111 293.3759766,175.4606171 293.1220703,175.0634766 C293.9163513,174.4384766 294.5901489,173.6409607 295.1435547,172.6708984 Z M295.4169922,177.4365234 L295.4169922,181.2646484 C295.9638672,180.3922424 296.2307739,179.1324921 296.2177734,177.4853516 L296.2177734,176.2353516 C295.9638672,176.6520233 295.6969604,177.0524139 295.4169922,177.4365234 Z M299.0302734,181.0009766 L301.4130859,181.0009766 L301.4130859,180.4248047 L299.0302734,180.4248047 Z M299.0302734,179.5263672 L301.4130859,179.5263672 L301.4130859,178.9599609 L299.0302734,178.9599609 Z M301.4130859,177.4951172 L299.0302734,177.4951172 L299.0302734,178.0615234 L301.4130859,178.0615234 Z M297.3701172,174.3017578 L297.3701172,174.8876953 L299.5673828,174.8876953 L299.5673828,174.1943359 C298.8316956,174.2398987 298.0993042,174.2757263 297.3701172,174.3017578 Z M311.1005859,176.4208984 C311.7907104,177.5862732 312.3831177,178.6474609 312.8779297,179.6044922 L311.6962891,180.2392578 C311.2145386,179.2724609 310.6969604,178.2617188 310.1435547,177.2070313 L310.1435547,182.2802734 L308.8251953,182.2802734 L308.8251953,177.8320313 C308.3727417,178.6783905 307.8486328,179.4742737 307.2529297,180.2197266 C307.0706177,180.0569611 306.9030151,179.9104767 306.75,179.7802734 C306.7174683,180.0537109 306.6930542,180.4475861 306.6767578,180.9619141 L303.3076172,181.4892578 L303.1611328,180.1611328 L304.3818359,180.0195313 L304.3818359,177.8466797 L303.3662109,177.8466797 L303.3662109,176.5478516 L304.3818359,176.5478516 L304.3818359,174.6240234 L303.3076172,174.6240234 L303.3076172,173.3251953 L306.7451172,173.3251953 L306.7451172,174.6240234 L305.6806641,174.6240234 L305.6806641,176.5478516 L306.7158203,176.5478516 L306.7158203,177.8466797 L305.6806641,177.8466797 L305.6806641,179.8388672 L306.6376953,179.6875 C306.4586792,179.5345001 306.2991333,179.4059296 306.1591797,179.3017578 C307.4026794,177.8369141 308.2750854,176.2679138 308.7763672,174.5947266 L307.1064453,174.5947266 L307.1064453,173.2958984 L312.5263672,173.2958984 L312.5263672,174.5947266 L310.1533203,174.5947266 C309.9905396,175.1416016 309.8049927,175.6721954 309.5966797,176.1865234 L310.1435547,176.1865234 L310.1435547,176.9287109 Z M313.0341797,180.9765625" style="fill:rgb(89,89,89);stroke:none" clip-path="url(#clip39)" />
</svg>
